<?xml version="1.0" encoding="UTF-8" standalone="no"?>
<svg
   xmlns:dc="http://purl.org/dc/elements/1.1/"
   xmlns:cc="http://creativecommons.org/ns#"
   xmlns:rdf="http://www.w3.org/1999/02/22-rdf-syntax-ns#"
   xmlns:svg="http://www.w3.org/2000/svg"
   xmlns="http://www.w3.org/2000/svg"
   xmlns:sodipodi="http://sodipodi.sourceforge.net/DTD/sodipodi-0.dtd"
   xmlns:inkscape="http://www.inkscape.org/namespaces/inkscape"
   viewBox="0 0 266 100"
   version="1.1"
   id="svg4558"
   sodipodi:docname="Facebook_New_Logo_(2015).svg"
   inkscape:version="0.92.1 r15371">
  <metadata
     id="metadata4564">
    <rdf:RDF>
      <cc:Work
         rdf:about="">
        <dc:format>image/svg+xml</dc:format>
        <dc:type
           rdf:resource="http://purl.org/dc/dcmitype/StillImage" />
        <dc:title></dc:title>
      </cc:Work>
    </rdf:RDF>
  </metadata>
  <defs
     id="defs4562" />
  <sodipodi:namedview
     pagecolor="#ffffff"
     bordercolor="#666666"
     borderopacity="1"
     objecttolerance="10"
     gridtolerance="10"
     guidetolerance="10"
     inkscape:pageopacity="0"
     inkscape:pageshadow="2"
     inkscape:window-width="1920"
     inkscape:window-height="1001"
     id="namedview4560"
     showgrid="false"
     inkscape:pagecheckerboard="true"
     inkscape:zoom="4.0269435"
     inkscape:cx="149.4304"
     inkscape:cy="54.141593"
     inkscape:window-x="-9"
     inkscape:window-y="-9"
     inkscape:window-maximized="1"
     inkscape:current-layer="svg4558" />
  <path
     d="M 0 0 L 0 100 L 266 100 L 266 0 L 0 0 z M 135.3457 28.644531 L 135.3457 46.375 C 137.7507 43.484 140.59386 42.487844 143.88086 42.839844 L 143.87891 42.837891 C 148.91891 43.374891 152.17469 46.072891 153.42969 50.962891 C 154.56069 55.363891 154.59966 59.826687 153.09766 64.179688 C 150.75766 70.963687 144.06809 72.444953 138.99609 70.626953 C 137.66009 70.148953 136.5197 69.140734 135.3457 68.302734 L 135.3457 70.738281 L 126.64062 70.738281 L 126.64062 29.697266 L 135.3457 28.644531 z M 225.10742 28.669922 L 225.10742 56.058594 L 233.12891 43.519531 L 242.36133 43.519531 L 233.6582 57.128906 L 242.36133 70.783203 L 233.12891 70.783203 L 225.10742 58.203125 L 225.10742 70.763672 L 216.40234 70.763672 L 216.40234 29.724609 L 225.10742 28.669922 z M 40.451172 28.710938 C 42.832627 28.738764 44.657734 29.171156 44.740234 29.191406 L 44.746094 29.191406 L 44.746094 35.609375 L 44.748047 35.638672 L 44.746094 35.90625 C 44.746094 35.90625 38.294844 35.164313 37.839844 39.070312 L 37.839844 43.201172 L 44.054688 43.201172 L 44.054688 43.199219 L 44.769531 43.199219 L 44.052734 50.550781 L 37.683594 50.550781 L 37.683594 70.541016 L 29.355469 70.541016 L 29.355469 50.550781 L 23.636719 50.550781 L 23.636719 43.201172 L 29.019531 43.201172 C 29.014531 42.510172 28.988813 37.014453 29.382812 35.814453 L 29.398438 35.751953 C 29.401438 35.749953 29.402344 35.746141 29.402344 35.744141 C 30.967969 29.744766 36.48208 28.664561 40.451172 28.710938 z M 55.861328 42.728516 C 56.933051 42.72796 58.035016 42.884687 59.142578 43.210938 C 60.679578 43.664938 61.420859 44.159297 63.380859 46.154297 C 63.380859 46.154297 63.465938 46.238234 63.585938 46.365234 C 63.600938 46.378234 63.611 46.389297 63.625 46.404297 C 63.712 46.495297 63.812063 46.60575 63.914062 46.71875 L 63.916016 46.71875 L 63.916016 43.232422 L 72.039062 43.232422 L 72.039062 70.767578 L 63.916016 70.767578 L 63.916016 67.242188 C 63.768016 67.530188 63.648438 67.677734 63.648438 67.677734 C 62.304437 69.365734 60.856203 70.580328 58.908203 70.986328 C 52.559203 72.308328 46.602547 69.625187 45.185547 61.617188 C 44.529547 57.917188 44.544109 54.159813 45.662109 50.507812 C 47.142484 45.679125 51.217196 42.730925 55.861328 42.728516 z M 199.86914 42.738281 C 201.38864 42.736531 202.90792 42.936797 204.41992 43.341797 L 204.42188 43.34375 C 209.21387 44.62575 212.12741 47.717391 213.19141 52.525391 C 213.86641 55.588391 213.86602 58.664609 213.16602 61.724609 C 211.88802 67.304609 207.50828 70.944141 201.73828 71.244141 C 201.68228 71.248141 201.6225 71.248047 201.5625 71.248047 L 201.54492 71.253906 C 200.38492 71.391906 198.99053 71.307406 197.89453 71.191406 C 197.55453 71.164406 197.23003 71.126172 196.95703 71.076172 C 196.95503 71.076172 196.95317 71.076219 196.95117 71.074219 C 196.87917 71.070219 196.80638 71.063641 196.73438 71.056641 C 196.51738 71.024641 196.30189 70.984406 196.08789 70.941406 L 196.05078 70.933594 L 196.04883 70.933594 C 195.96941 70.915793 195.88798 70.900705 195.80859 70.880859 C 190.22259 69.593859 186.62078 65.445047 186.30078 59.623047 C 186.15878 57.077047 186.26583 54.439078 186.79883 51.955078 C 187.77483 47.408078 190.80331 44.549703 195.32031 43.345703 C 196.83031 42.943703 198.34964 42.740031 199.86914 42.738281 z M 170.17969 42.742188 C 171.69881 42.740312 173.21847 42.940703 174.73047 43.345703 L 174.72852 43.347656 C 179.52052 44.629656 182.43605 47.722297 183.49805 52.529297 C 184.17505 55.593297 184.17656 58.668516 183.47656 61.728516 C 182.19856 67.310516 177.82078 70.948047 172.05078 71.248047 C 171.99278 71.253047 171.93109 71.253906 171.87109 71.253906 C 171.86509 71.254906 171.86152 71.257812 171.85352 71.257812 C 170.69152 71.395813 169.29908 71.311312 168.20508 71.195312 C 167.86308 71.168312 167.53758 71.130078 167.26758 71.080078 L 167.26172 71.080078 L 167.04492 71.060547 C 166.82792 71.027547 166.61444 70.987313 166.39844 70.945312 L 166.35938 70.935547 L 166.35742 70.935547 C 166.27802 70.918741 166.19653 70.906563 166.11914 70.886719 C 160.53114 69.598719 156.93138 65.450859 156.60938 59.630859 C 156.46738 57.084859 156.57442 54.446844 157.10742 51.964844 C 158.08242 47.415844 161.11281 44.555563 165.63281 43.351562 C 167.14131 42.949062 168.66056 42.744063 170.17969 42.742188 z M 88.152344 42.800781 C 90.226166 42.729225 92.269727 42.905182 94.275391 43.478516 L 94.277344 43.478516 C 94.278751 43.478918 94.424558 43.522134 94.646484 43.591797 C 94.896484 43.671797 95.146484 43.751797 95.396484 43.841797 C 96.019484 44.069797 96.418344 44.232734 96.652344 44.427734 C 96.838344 44.545734 96.977156 44.66525 97.035156 44.78125 L 96.804688 45.662109 C 96.756687 45.839109 96.697 46.035625 96.625 46.265625 C 96.168 47.729625 95.677266 49.182391 95.197266 50.650391 C 93.816266 50.309391 92.584266 49.929797 91.322266 49.716797 C 90.396266 49.559797 89.421328 49.513516 88.486328 49.603516 C 85.714328 49.865516 83.972172 51.393047 83.576172 54.248047 C 83.365172 55.761047 83.32075 57.343953 83.46875 58.876953 C 85.05575 68.164953 95.238281 63.277344 95.238281 63.277344 L 95.632812 64.738281 C 96.046813 66.051281 96.474563 67.412969 96.851562 68.792969 L 96.849609 68.791016 L 97.080078 69.574219 L 96.591797 69.746094 C 95.306797 70.207094 93.515578 70.853828 92.267578 71.048828 C 89.299578 71.511828 86.31625 71.468234 83.40625 70.615234 C 78.94525 69.307234 76.201172 66.382469 75.201172 61.855469 C 74.534172 58.832469 74.507891 55.782531 75.087891 52.769531 C 76.195891 47.039531 80.188359 43.569219 86.068359 42.949219 C 86.765859 42.875719 87.460859 42.824641 88.152344 42.800781 z M 111.49219 42.853516 C 112.48869 42.859766 113.48227 42.930297 114.44727 43.091797 C 119.50427 43.940797 122.63005 47.190172 123.37305 52.326172 C 123.64305 54.199172 123.61625 56.114531 123.65625 58.019531 L 123.65625 58.021484 L 123.67188 59.796875 L 123.67188 60.099609 C 123.62888 60.109609 122.60547 60.123047 122.60547 60.123047 L 122.60547 60.121094 C 122.49347 60.123094 122.37862 60.123047 122.26562 60.123047 L 106.5918 60.123047 C 106.5038 63.199047 108.36102 64.500391 110.79102 64.900391 C 112.28702 65.028391 113.76833 65.023 115.23633 64.875 C 116.98333 64.65 118.63887 64.247875 119.79688 63.921875 C 119.85888 63.903875 119.91852 63.885234 119.97852 63.865234 C 120.30652 63.755234 120.63766 63.653406 120.97266 63.566406 C 120.97766 63.564406 120.98519 63.564453 120.99219 63.564453 C 121.27219 63.474453 121.43164 63.417969 121.43164 63.417969 L 121.47461 63.5625 C 121.87661 65.0515 122.30125 66.537063 122.65625 68.039062 C 122.65825 68.039062 122.66497 68.039109 122.66797 68.037109 L 122.97461 69.164062 C 115.32661 73.008062 106.64895 70.737031 104.87695 70.207031 L 104.87695 70.205078 C 104.86095 70.203078 104.84317 70.199219 104.82617 70.199219 L 104.82422 70.199219 C 100.94022 68.789219 98.696172 65.852234 98.076172 61.240234 C 97.666172 58.174234 97.730281 54.936766 98.238281 51.884766 C 99.074281 46.853766 103.14862 43.508047 108.51562 42.998047 C 109.49662 42.904547 110.49569 42.847266 111.49219 42.853516 z M 111.11523 48.720703 C 110.17973 48.745703 109.25019 49.037656 108.36719 49.597656 C 106.70419 50.657656 106.47187 52.397578 106.42188 54.267578 L 115.82617 54.267578 L 115.82812 54.267578 C 115.88112 52.286578 115.73639 50.453453 113.90039 49.439453 C 112.99239 48.936453 112.05073 48.695703 111.11523 48.720703 z M 200.0293 49.580078 C 197.1353 49.523078 195.20817 51.208969 194.95117 54.292969 C 194.78817 56.245969 194.80619 58.239453 194.99219 60.189453 C 195.25019 62.860453 197.08381 64.422875 199.75781 64.546875 C 202.24481 64.661875 204.1075 63.274031 204.6875 60.707031 C 204.7275 60.527031 204.75711 60.349969 204.78711 60.167969 C 204.84211 59.644969 205.24622 55.555813 204.69922 53.257812 C 204.09622 50.972812 202.4013 49.626078 200.0293 49.580078 z M 140.16211 49.582031 C 138.31711 49.643031 136.92591 50.438484 136.12891 51.896484 C 135.18991 53.798484 135.34242 57.823047 135.48242 59.748047 C 135.48242 59.746047 135.48433 59.746094 135.48633 59.746094 C 135.66733 60.990094 136.29156 62.971297 138.35156 64.154297 C 138.87056 64.358297 139.44789 64.487109 140.08789 64.537109 C 142.64489 64.736109 144.79769 63.319281 145.17969 60.613281 L 145.18359 60.613281 C 145.51959 58.271281 145.50225 55.801031 145.15625 53.457031 C 144.76625 50.797031 142.78411 49.496031 140.16211 49.582031 z M 58.677734 49.585938 C 56.237734 49.527937 54.573875 50.658313 53.921875 52.945312 C 53.857875 53.272313 53.102047 57.318609 53.748047 60.724609 C 54.287047 63.118609 55.938594 64.454734 58.433594 64.552734 C 60.868594 64.647734 62.927219 63.118266 63.199219 60.572266 C 63.449219 58.249266 63.442453 55.859109 63.189453 53.537109 C 62.919453 51.054109 61.073734 49.638937 58.677734 49.585938 z M 170.33789 49.585938 C 167.44589 49.527938 165.51867 51.213875 165.26367 54.296875 C 165.10367 56.249875 165.11673 58.243313 165.30273 60.195312 C 165.55973 62.867312 167.39531 64.430734 170.07031 64.552734 C 172.55631 64.668734 174.42 63.278937 175 60.710938 C 175.03986 60.533561 175.06971 60.353197 175.09961 60.173828 C 175.15293 59.646563 175.55945 55.562533 175.01172 53.263672 C 174.40772 50.978672 172.71489 49.631937 170.33789 49.585938 z "
     id="path4552"
     style="stroke:none;fill:#f9fbfd;fill-opacity:1" />
  <g
     fill="#FFF"
     fill-rule="evenodd"
     clip-rule="evenodd"
     id="g4556" />
</svg>
