<?xml version="1.0" encoding="UTF-8" standalone="no"?>
<!-- Created with Inkscape (http://www.inkscape.org/) -->

<svg
   xmlns:dc="http://purl.org/dc/elements/1.1/"
   xmlns:cc="http://creativecommons.org/ns#"
   xmlns:rdf="http://www.w3.org/1999/02/22-rdf-syntax-ns#"
   xmlns:svg="http://www.w3.org/2000/svg"
   xmlns="http://www.w3.org/2000/svg"
   xmlns:sodipodi="http://sodipodi.sourceforge.net/DTD/sodipodi-0.dtd"
   xmlns:inkscape="http://www.inkscape.org/namespaces/inkscape"
   version="1.1"
   width="136.5625"
   height="50"
   id="svg2"
   xml:space="preserve"
   sodipodi:docname="google-play-mono.svg"
   inkscape:version="0.92.1 r15371"><sodipodi:namedview
     pagecolor="#ffffff"
     bordercolor="#666666"
     borderopacity="1"
     objecttolerance="10"
     gridtolerance="10"
     guidetolerance="10"
     inkscape:pageopacity="0"
     inkscape:pageshadow="2"
     inkscape:window-width="1920"
     inkscape:window-height="1001"
     id="namedview4820"
     showgrid="false"
     inkscape:pagecheckerboard="true"
     inkscape:zoom="9.7057057"
     inkscape:cx="68.689194"
     inkscape:cy="18.700945"
     inkscape:window-x="-9"
     inkscape:window-y="-9"
     inkscape:window-maximized="1"
     inkscape:current-layer="svg2" /><metadata
     id="metadata8"><rdf:RDF><cc:Work
         rdf:about=""><dc:format>image/svg+xml</dc:format><dc:type
           rdf:resource="http://purl.org/dc/dcmitype/StillImage" /><dc:title></dc:title></cc:Work></rdf:RDF></metadata><defs
     id="defs6"><clipPath
       id="clipPath60"><path
         d="m 97.6953,90.1836 c -3.1015,0 -5.789,1.0664 -7.8594,3.0703 -2.6836,2.625 -4.3086,6.8091 -4.3086,12.3671 l 0,189.035 0,0 0,0 0,-1.25 c 0,9.746 4.9805,15.434 12.1563,15.434 2.8944,0 6.1484,-0.926 9.5784,-2.879 l 51.004,-28.973 c -33.36,-9.613 -57.75,-40.363 -57.75,-76.82 l 0,0 0,0 0,0 0,0 0,-0.688 c 0,0.063 0,0.125 0,0.188 0.226,-36.75 25.257,-67.609 59.203,-76.688 l 0,0 97.672,55.458 c 1.886,6.765 2.945,13.832 2.996,21.195 0,-0.07 0,-0.145 0,-0.211 l 0,0.746 0,0 0,0 c 0,7.012 -0.903,13.812 -2.598,20.289 l 16.149,-9.172 c 5.464,-3.121 8.39,-7.168 8.882,-11.25 -0.054,-4.445 -3.035,-8.89 -8.945,-12.293 L 107.262,93.0664 c -3.438,-1.957 -6.68,-2.8828 -9.5667,-2.8828 M 85.5273,294.719 c 0,0.004 0,0.011 0,0.015 0,-0.004 0,-0.011 0,-0.015 m 0,0.062 c 0,0.004 0,0.012 0,0.016 0,-0.004 0,-0.012 0,-0.016 m 0,0.067 c 0,0.004 0,0.004 0,0.007 l 0,-0.007 m 0,0.066 0,0.004 0,-0.004 m 21.7347,12.293 0,0 c -3.446,1.938 -6.699,2.856 -9.594,2.856 -2.1602,0 -4.1172,-0.512 -5.8008,-1.489 1.6953,0.996 3.6601,1.52 5.8281,1.52 2.8867,0 6.1287,-0.926 9.5667,-2.887 l 0,0"
         inkscape:connector-curvature="0"
         id="path62" /></clipPath><clipPath
       id="clipPath84"><path
         d="m 282.82,200.035 c -0.492,4.082 -3.418,8.129 -8.882,11.25 l -16.149,9.172 c -0.125,0.484 -0.254,0.961 -0.391,1.441 l 16.477,-9.363 c 5.965,-3.402 8.945,-7.887 8.945,-12.375 0,-0.043 0,-0.082 0,-0.125 m -124.554,76.953 -51.004,28.973 c -3.43,1.953 -6.684,2.879 -9.5784,2.879 -7.1758,0 -12.1563,-5.688 -12.1563,-15.434 l 0,1.25 0,0 c 0,0.02 0,0.039 0,0.063 0,0.004 0,0.011 0,0.015 0,0.016 0,0.032 0,0.047 0,0.004 0,0.012 0,0.016 0,0.016 0,0.031 0,0.051 l 0,0.007 c 0,0.02 0,0.04 0,0.059 l 0,0.004 c 0.0508,5.426 1.6641,9.52 4.3086,12.102 0.625,0.605 1.3008,1.125 2.0313,1.554 1.6836,0.977 3.6406,1.489 5.8008,1.489 2.895,0 6.148,-0.918 9.594,-2.856 l 0,0 52.468,-29.812 c -0.492,-0.133 -0.976,-0.266 -1.464,-0.407"
         inkscape:connector-curvature="0"
         id="path86" /></clipPath><clipPath
       id="clipPath100"><path
         d="m 236.883,256.785 c -13.86,13.82 -32.77,22.574 -53.723,23.274 20.953,-0.7 39.867,-9.457 53.723,-23.274"
         inkscape:connector-curvature="0"
         id="path102" /></clipPath><clipPath
       id="clipPath112"><path
         d="m 159.719,122.98 c -33.946,9.079 -58.977,39.938 -59.203,76.688 0.414,43.816 36.031,79.187 79.933,79.187 42.735,0 77.621,-33.57 79.828,-75.765 0.032,-0.949 0.047,-1.899 0.047,-2.86 0,-7.554 -1.062,-14.8 -2.996,-21.73 l -97.609,-55.52 m 20.73,127.149 c -27.59,0 -49.957,-22.367 -49.957,-49.961 0,-27.59 22.367,-49.957 49.957,-49.957 11.25,0 21.633,3.715 29.985,9.992 l 1.343,0 0,1.043 c 11.364,9.16 18.633,23.192 18.633,38.922 0,27.594 -22.367,49.961 -49.961,49.961"
         inkscape:connector-curvature="0"
         id="path114" /></clipPath><clipPath
       id="clipPath124"><path
         d="m 180.449,150.211 c -27.59,0 -49.957,22.367 -49.957,49.957 0,27.594 22.367,49.961 49.957,49.961 27.594,0 49.961,-22.367 49.961,-49.961 0,-15.73 -7.269,-29.762 -18.633,-38.922 l 0,73.895 -57.554,0 0,-74.938 56.211,0 c -8.352,-6.277 -18.735,-9.992 -29.985,-9.992"
         inkscape:connector-curvature="0"
         id="path126" /></clipPath><clipPath
       id="clipPath136"><path
         d="m 211.777,160.203 -1.343,0 c 0.453,0.34 0.902,0.688 1.343,1.043 l 0,-1.043"
         inkscape:connector-curvature="0"
         id="path138" /></clipPath><clipPath
       id="clipPath148"><path
         d="m 210.434,160.203 -56.211,0 0,74.938 57.554,0 0,-73.895 c -0.441,-0.355 -0.89,-0.703 -1.343,-1.043"
         inkscape:connector-curvature="0"
         id="path150" /></clipPath><clipPath
       id="clipPath162"><path
         d="m 260.387,199.422 c 0,0.066 0,0.141 0,0.211 0,0.176 0,0.355 0,0.535 l 0,0 0,-0.746 m -159.871,0.058 0,0.688 0,0 c 0,-0.164 0,-0.332 0,-0.5 0,-0.063 0,-0.125 0,-0.188"
         inkscape:connector-curvature="0"
         id="path164" /></clipPath><clipPath
       id="clipPath176"><path
         d="m 100.516,199.668 c 0,0.168 0,0.336 0,0.5 0,44.152 35.785,79.937 79.933,79.937 0.821,0 1.637,-0.011 2.449,-0.039 0.09,0 0.176,-0.003 0.262,-0.007 20.953,-0.7 39.863,-9.454 53.723,-23.274 13.879,-13.836 22.683,-32.746 23.394,-53.695 -2.207,42.195 -37.093,75.765 -79.828,75.765 -43.902,0 -79.519,-35.371 -79.933,-79.187"
         inkscape:connector-curvature="0"
         id="path178" /></clipPath></defs><g
     id="g4835"
     transform="matrix(0.16310852,0,0,0.16310852,0.73976589,23.053463)"
     style="stroke:none"><path
       style="fill:#fafafa;fill-opacity:1;stroke:none"
       id="path6"
       d="m 54.963597,-76.057541 c -2.375,0.05 -4.424609,0.875 -5.974609,2.375001 -2.2,2.1 -3.400391,5.50039 -3.400391,9.90039 V 87.516675 c 0,4.4 1.300391,7.80039 3.400391,9.90039 3.2,3.099995 8.200391,3.399605 13.900391,0.0996 l 41.923831,-23.8203 C 77.552216,66.370305 57.488988,41.489375 57.488988,11.917069 c 0,-29.570634 20.145347,-54.497918 47.433592,-61.814453 L 62.889379,-73.78215 c -2.85,-1.6 -5.550782,-2.325391 -7.925782,-2.275391 z M 183.06321,-5.4989474 c 1.56879,5.54122004 2.42578,11.377996 2.42578,17.4160164 0,5.95779 -0.79158,11.81632 -2.36914,17.283196 l 13.16992,-7.482416 c 9.6,-5.4 9.6,-14.2011714 0,-19.7011714 z"
       inkscape:connector-curvature="0" /><path
       id="path17"
       d="m 121.48899,-52.082931 c -35.300002,0 -64.000002,28.7 -64.000002,64 0,29.599996 20.100391,54.500776 47.400392,61.800776 l 78.19922,-44.40039 c 1.6,-5.499996 2.40039,-11.400386 2.40039,-17.400386 0,-35.3 -28.7,-64 -64,-64 z m 0,1.560547 c 34.45363,0 62.43945,27.985818 62.43945,62.439453 0,5.65669 -0.76772,11.19946 -2.21679,16.386716 l -76.97657,43.70703 C 78.40086,64.695745 59.049535,40.600835 59.049535,11.917069 c 0,-34.453635 27.985818,-62.439453 62.439455,-62.439453 z"
       style="fill:#ffffff;fill-opacity:1;stroke:none;stroke-opacity:1"
       inkscape:connector-curvature="0" /><path
       id="circle19"
       d="m 121.48899,-28.082931 a 40,40 0 0 0 -40.000002,40 40,40 0 0 0 40.000002,39.999996 40,40 0 0 0 40,-39.999996 40,40 0 0 0 -40,-40 z m 0,18.9999996 h 14 V 0.91706864 h -9 V 23.516679 c 0,5.099996 -4.49922,9.300776 -9.69922,9.300776 -5.1,0 -9.30078,-4.10078 -9.30078,-9.300776 0,-5.1 4.10078,-9.298829 9.30078,-9.298829 1.7,0 3.29922,0.498828 4.69922,1.298828 z"
       style="fill:#fafafa;fill-opacity:1;stroke:none;stroke-opacity:1"
       inkscape:connector-curvature="0" /></g><path
     style="fill:#ffffff;fill-opacity:1;fill-rule:nonzero;stroke:none;stroke-width:0.13026743"
     d="m 90.504684,9.1779199 c -2.323451,0 -4.276436,1.8919231 -4.276436,4.2153731 0,2.322929 1.952986,4.213337 4.276436,4.213337 1.253823,0 2.200754,-0.411661 2.941194,-1.182584 0.760762,-0.760762 0.995324,-1.829329 0.995324,-2.692872 0,-0.267048 -0.0199,-0.512945 -0.06106,-0.718507 h -3.875456 v 1.152053 h 2.75597 c -0.08246,0.64769 -0.300153,1.12043 -0.628948,1.449225 -0.400963,0.400963 -1.027434,0.842668 -2.127022,0.842668 -1.696082,0 -3.022612,-1.367368 -3.022612,-3.06332 0,-1.696603 1.32653,-3.06332 3.022612,-3.06332 0.914868,0 1.582554,0.359733 2.076137,0.822313 l 0.812136,-0.812137 C 92.703973,9.6822988 91.789511,9.1779199 90.504684,9.1779199 Z m 22.259446,0.2869959 v 7.9788802 h 1.19276 V 9.4649158 Z M 46.747038,10.063331 c -0.211163,-0.0016 -0.406043,0.07842 -0.553636,0.227968 -0.149026,0.147593 -0.22901,0.342473 -0.227968,0.553637 -0.001,0.209666 0.07974,0.40213 0.227968,0.549566 0.147593,0.15111 0.342473,0.231436 0.553636,0.230003 0.209676,0.0015 0.402125,-0.0797 0.549566,-0.230003 h 0.002 c 0.148241,-0.14692 0.228877,-0.339376 0.227968,-0.549566 9.11e-4,-0.212206 -0.07894,-0.406565 -0.227968,-0.553637 -0.147072,-0.149026 -0.34135,-0.22901 -0.551602,-0.227968 z m -5.89053,0.107878 v 7.419137 h 0.130267 4.150239 v -1.13984 h -3.099957 v -6.279297 z m 13.260818,0.732754 v 1.500111 h -0.860987 v 1.099132 h 0.860987 v 2.440478 c -3.91e-4,0.521591 0.1409,0.949048 0.441688,1.251789 0.300266,0.304305 0.732803,0.450221 1.268072,0.44983 0.305868,0 0.570326,-0.0453 0.791781,-0.14248 l 0.11602,-0.05089 -0.366377,-0.907801 -0.05292,-0.126197 -0.124162,0.05903 c -0.0921,0.04273 -0.211147,0.06717 -0.364341,0.06717 -0.195401,-0.0014 -0.312414,-0.05444 -0.394873,-0.152657 -0.08246,-0.09861 -0.136374,-0.267146 -0.136374,-0.516999 v -2.371274 h 1.200903 V 12.404073 H 55.29584 v -1.500111 z m 43.456402,1.276214 c -1.500551,0 -2.723405,1.140378 -2.723405,2.713227 0,1.562688 1.222854,2.713226 2.723405,2.713226 1.501202,0 2.723402,-1.150538 2.723402,-2.713226 0,-1.572849 -1.2222,-2.713227 -2.723402,-2.713227 z m 5.943452,0 c -1.50107,0 -2.72544,1.140378 -2.72544,2.713227 0,1.562688 1.22437,2.713226 2.72544,2.713226 1.50068,0 2.72341,-1.150538 2.72341,-2.713226 0,-1.572849 -1.22273,-2.713227 -2.72341,-2.713227 z m 5.82336,0 c -1.3566,0 -2.60128,1.191849 -2.60128,2.723404 0,1.521524 1.24468,2.703049 2.60128,2.703049 0.64782,0 1.16118,-0.287549 1.42887,-0.616735 h 0.0407 v 0.390803 c 0,1.038101 -0.55507,1.59374 -1.44922,1.59374 -0.72964,0 -1.18257,-0.524701 -1.36781,-0.966829 l -1.03603,0.433547 c 0.29817,0.719467 1.088,1.601882 2.40384,1.601882 1.39789,0 2.58092,-0.822785 2.58092,-2.82721 v -4.872817 h -1.1317 v 0.443724 h -0.0407 c -0.26769,-0.318634 -0.78105,-0.606558 -1.42887,-0.606558 z m 7.75092,0 c -1.39777,0 -2.55854,1.099213 -2.55854,2.713227 0,1.521523 1.15102,2.713226 2.69287,2.713226 1.24405,0 1.96317,-0.759166 2.26136,-1.200903 l -0.92612,-0.616735 c -0.30834,0.451768 -0.72872,0.749038 -1.33524,0.749038 -0.60666,0 -1.03907,-0.277405 -1.31692,-0.822314 l 3.62917,-1.50011 -0.12417,-0.309386 c -0.22588,-0.606525 -0.91383,-1.726043 -2.32241,-1.726043 z m -66.503568,0.0631 c -0.548556,-5.21e-4 -1.035039,0.141976 -1.441083,0.429475 -0.411124,0.286068 -0.633458,0.688578 -0.630983,1.162231 -0.002,0.411254 0.160799,0.761771 0.470184,1.005502 0.293102,0.23409 0.604978,0.395817 0.938332,0.48036 h 0.002 l 0.989217,0.240181 c 0.42389,0.115026 0.565882,0.276248 0.56992,0.523105 -0.0025,0.166352 -0.06303,0.282892 -0.21779,0.392838 -0.156712,0.107861 -0.363935,0.166905 -0.630983,0.166905 -0.582687,-0.0061 -0.957238,-0.264198 -1.209045,-0.840632 l -0.05089,-0.118054 -0.940369,0.388766 -0.12009,0.05089 0.05089,0.120091 c 0.174037,0.421415 0.451864,0.774066 0.826383,1.052316 0.382597,0.28698 0.865107,0.427441 1.432942,0.427441 0.588289,5.21e-4 1.084852,-0.154676 1.471616,-0.470184 h 0.002 c 0.38468,-0.311339 0.590193,-0.724124 0.588239,-1.200903 0.001,-0.355761 -0.124178,-0.684327 -0.362306,-0.964793 -0.244241,-0.287506 -0.613169,-0.480801 -1.09099,-0.592311 l -0.968865,-0.227968 c -0.415292,-0.104344 -0.548001,-0.248322 -0.549565,-0.443723 0.0036,-0.149026 0.05899,-0.249396 0.217791,-0.350093 0.161271,-0.0977 0.365481,-0.150621 0.620805,-0.150622 0.536963,0.0061 0.837555,0.187845 1.001432,0.569921 l 0.05089,0.120089 0.917978,-0.378589 0.12009,-0.05089 -0.04885,-0.118054 C 52.440664,13.074859 52.175543,12.76581 51.811185,12.556731 51.450474,12.347 51.041223,12.243275 50.587892,12.243275 Z m 9.128898,0 c -0.732754,-0.0016 -1.352567,0.274213 -1.823744,0.814172 -0.471307,0.53579 -0.708851,1.18659 -0.70833,1.92755 -0.001,0.779521 0.242738,1.440531 0.730719,1.958083 0.486549,0.521591 1.132774,0.782647 1.901091,0.781605 0.554158,0 1.033476,-0.134387 1.4248,-0.409121 0.384158,-0.26809 0.664006,-0.607519 0.834526,-1.011608 l 0.05292,-0.120091 -0.942404,-0.390802 -0.12009,-0.04885 -0.04885,0.120089 c -0.221845,0.515469 -0.596885,0.752572 -1.221257,0.759216 -0.37504,-10e-4 -0.691509,-0.128737 -0.97497,-0.394873 -0.247675,-0.234006 -0.388938,-0.544838 -0.435582,-0.944439 h 3.842889 l 0.01832,-0.293102 v -0.0041 -0.002 c 5.21e-4,-0.816255 -0.226519,-1.487865 -0.69001,-1.988613 -0.460496,-0.501269 -1.086431,-0.754672 -1.840028,-0.753109 z m 6.110357,0 c -0.349638,0 -0.679932,0.08853 -0.985147,0.26257 -0.192655,0.109887 -0.344759,0.243333 -0.476291,0.388767 v -0.490538 h -0.130268 -1.009572 v 5.159812 h 1.180549 v -2.839424 c 0.001,-0.373606 0.109017,-0.69307 0.331774,-0.974969 0.219892,-0.274213 0.483862,-0.403096 0.82842,-0.40505 0.381162,9.11e-4 0.638017,0.104892 0.810101,0.297172 0.171953,0.192405 0.270711,0.496612 0.270711,0.932226 v 2.990045 h 1.180549 v -3.130489 c 3.91e-4,-0.647299 -0.166465,-1.184115 -0.510892,-1.5856 -0.347032,-0.406043 -0.858919,-0.606085 -1.489934,-0.604522 z m 8.190565,0 c -0.762716,-0.0016 -1.409494,0.264085 -1.905162,0.785675 -0.498142,0.520549 -0.748044,1.18252 -0.747002,1.956047 -0.001,0.772877 0.24886,1.434897 0.747002,1.954012 0.496189,0.522502 1.142446,0.786718 1.905162,0.785676 0.761804,0.001 1.406546,-0.263174 1.903126,-0.785676 0.49723,-0.519116 0.748044,-1.181135 0.747002,-1.954012 0.001,-0.773528 -0.248257,-1.436019 -0.744967,-1.956047 h -0.002 c -0.49658,-0.521596 -1.140801,-0.787238 -1.903126,-0.785675 z m 6.130711,0 c -0.349117,0 -0.679801,0.08853 -0.985148,0.26257 -0.198995,0.113356 -0.354873,0.251825 -0.488503,0.403016 0.0092,-0.170553 0.006,-0.397581 0.01221,-0.504787 H 78.556718 77.54918 v 5.159812 h 1.178513 v -2.839424 c 5.21e-4,-0.373606 0.111445,-0.69307 0.333811,-0.974969 0.219761,-0.274213 0.482347,-0.403096 0.826384,-0.40505 0.381032,9.11e-4 0.638668,0.104892 0.8101,0.297172 0.172474,0.192405 0.270713,0.496612 0.270713,0.932226 v 2.990045 h 1.178512 V 14.433399 C 82.147734,13.7861 81.9814,13.249284 81.636321,12.847799 81.28981,12.441756 80.779829,12.241714 80.148423,12.243277 Z m -33.993694,0.160799 v 5.159812 h 1.180548 v -0.130267 -5.029545 z m 70.977431,0.824349 c 0.47313,0 0.87427,0.23668 1.00754,0.576026 l -2.4242,1.007538 c -0.0311,-1.048653 0.81001,-1.583564 1.41666,-1.583564 z m -19.558432,0.02035 c 0.822378,0 1.532677,0.668142 1.532677,1.644627 0,0.966323 -0.710299,1.644626 -1.532677,1.644626 -0.822248,0 -1.532679,-0.678303 -1.532678,-1.644626 0,-0.976485 0.71043,-1.644627 1.532678,-1.644627 z m 5.943452,0 c 0.82238,0 1.53065,0.668142 1.53065,1.644627 0,0.966323 -0.70827,1.644626 -1.53065,1.644626 -0.82224,0 -1.53268,-0.678303 -1.53268,-1.644626 0,-0.976485 0.71044,-1.644627 1.53268,-1.644627 z m 5.92513,0 c 0.81222,0 1.45126,0.699292 1.45126,1.654804 0,0.946002 -0.63904,1.634449 -1.45126,1.634449 -0.82173,0 -1.51029,-0.688448 -1.51029,-1.634449 0,-0.955511 0.68856,-1.654804 1.51029,-1.654804 z m -49.745874,0.09567 c 0.444732,9.11e-4 0.754639,0.11864 0.960721,0.33788 0.17865,0.192319 0.267409,0.38593 0.311422,0.582133 h -2.479153 c 0.09306,-0.254887 0.221085,-0.471996 0.407086,-0.630982 0.228489,-0.19436 0.486369,-0.28812 0.799924,-0.289031 z m 14.321276,0 c 0.400442,0.0015 0.735343,0.143928 1.031962,0.445758 0.290105,0.298182 0.436575,0.685842 0.437617,1.194796 -0.001,0.508305 -0.147512,0.89458 -0.437617,1.192762 -0.296619,0.301179 -0.63152,0.444196 -1.031962,0.445759 -0.401485,-0.0016 -0.735815,-0.144059 -1.033998,-0.445759 l -0.002,-0.002 c -0.288626,-0.297899 -0.432507,-0.68309 -0.433546,-1.190727 10e-4,-0.509476 0.145606,-0.896614 0.435582,-1.194796 0.298181,-0.30183 0.632513,-0.444325 1.033998,-0.445758 z m 44.107738,8.473489 c -0.40253,-0.0026 -0.7708,0.148 -1.05231,0.433546 -0.28542,0.281899 -0.43603,0.650832 -0.43356,1.052316 -0.002,0.402006 0.14814,0.768383 0.43356,1.050282 0.2815,0.285546 0.64978,0.438187 1.05231,0.435582 0.40148,0.0026 0.76839,-0.150036 1.05029,-0.435582 0.28502,-0.281378 0.43804,-0.647755 0.43557,-1.050282 0.002,-0.402526 -0.15055,-0.770417 -0.43557,-1.052316 -0.2819,-0.285025 -0.64881,-0.436152 -1.05029,-0.433546 z m -77.128497,0.154693 v 14.315169 h 2.236935 v -0.227968 -5.385744 h 2.715262 c 1.223863,0.0021 2.306141,-0.414267 3.20173,-1.231435 0.902623,-0.817819 1.364698,-1.878211 1.361702,-3.120311 0.003,-1.242231 -0.45947,-2.302624 -1.361702,-3.120313 -0.895589,-0.816777 -1.977867,-1.231352 -3.20173,-1.229398 z m 11.09105,0 V 36.287794 H 54.32494 V 36.059826 21.972625 Z m 28.935654,0 v 14.315169 h 0.230003 2.008969 l -0.07328,-10.042805 4.046432,7.099575 h 1.310816 l 4.046433,-7.099575 -0.07328,10.042805 h 2.23898 V 21.972625 h -2.141272 l -4.726265,8.274017 -4.72423,-8.274017 z m -37.789769,2.157554 h 2.751901 c 0.698753,0.0031 1.22181,0.226502 1.632413,0.679833 0.420764,0.471177 0.617207,0.963246 0.618771,1.512324 -0.0016,0.548556 -0.198007,1.041667 -0.618771,1.512323 -0.410603,0.453852 -0.933659,0.676706 -1.632413,0.679833 h -2.751901 z m 16.997865,1.907196 c -1.09099,-5.21e-4 -1.997293,0.250358 -2.690836,0.771428 -0.669184,0.50179 -1.13362,1.058423 -1.371879,1.677193 l -0.07938,0.205578 2.047642,0.87727 0.08345,-0.225933 c 0.138474,-0.375561 0.382644,-0.664037 0.763286,-0.887446 0.383116,-0.22393 0.805964,-0.335325 1.286391,-0.335846 0.651858,0.0016 1.175403,0.190923 1.612059,0.571955 0,0 0.002,0 0.002,0 0.403398,0.360117 0.604374,0.814355 0.626911,1.410553 -0.653544,-0.293968 -1.429073,-0.445759 -2.336672,-0.445759 -1.212008,-9.13e-4 -2.252665,0.304792 -3.095886,0.924084 -0.854946,0.622287 -1.299093,1.522501 -1.294534,2.613491 -0.003,1.008009 0.368429,1.857955 1.095061,2.477116 0.720119,0.618771 1.626373,0.927684 2.676589,0.92612 1.225145,0.0053 2.232044,-0.433445 2.963584,-1.280285 v 0.9709 h 2.15959 v -5.957699 c 0.0031,-1.334721 -0.420357,-2.415126 -1.276214,-3.171199 -0.8427,-0.749037 -1.914378,-1.122954 -3.171198,-1.121521 z m 51.197137,0 c -1.05803,-5.21e-4 -1.99012,0.272797 -2.77225,0.824349 -0.79177,0.550641 -1.21361,1.32044 -1.20905,2.228795 -0.004,0.790723 0.30322,1.459971 0.89763,1.929585 0.56432,0.450335 1.16923,0.76073 1.8095,0.924085 l 1.91737,0.464078 c 0.40699,0.103283 0.69283,0.253144 0.86709,0.423369 0.17403,0.171953 0.254,0.358333 0.25647,0.614699 -0.005,0.330749 -0.12769,0.562805 -0.43355,0.77957 -0.3073,0.212596 -0.71353,0.327182 -1.23551,0.327704 -1.13476,-0.01068 -1.87667,-0.519556 -2.36517,-1.642591 l -0.0875,-0.207613 -2.00693,0.83249 0.0875,0.211684 c 0.33739,0.811045 0.87258,1.490927 1.59374,2.029322 0.7358,0.550157 1.66442,0.820971 2.75801,0.820278 0,0 0.002,0 0.002,0 1.13383,6.72e-4 2.09034,-0.298101 2.83331,-0.90373 0.74083,-0.599882 1.13266,-1.390751 1.12967,-2.30614 10e-4,-0.683383 -0.23672,-1.31181 -0.69408,-1.850205 -0.46818,-0.552074 -1.17551,-0.926072 -2.0965,-1.13984 l 0.002,0.002 -1.87871,-0.445759 c -0.39797,-0.09106 -0.67769,-0.22489 -0.8447,-0.372483 -0.16634,-0.149547 -0.23502,-0.299209 -0.23815,-0.510892 0.005,-0.296098 0.12222,-0.497639 0.43356,-0.694082 0.31811,-0.192275 0.71955,-0.294616 1.21718,-0.295137 1.04371,0.0112 1.63698,0.367891 1.95808,1.11745 l 0.0855,0.209649 1.96825,-0.812136 -0.0834,-0.209648 c -0.30014,-0.753598 -0.81063,-1.344996 -1.51029,-1.748434 -0.69406,-0.402006 -1.48739,-0.600973 -2.3611,-0.600452 z m 14.53703,0 c -1.47059,-0.0025 -2.71475,0.506268 -3.66987,1.512324 -0.9576,1.002408 -1.43911,2.274583 -1.43702,3.767579 -0.002,1.492473 0.47942,2.76504 1.43702,3.767578 0.95512,1.006446 2.19928,1.514799 3.66987,1.512323 1.09463,10e-4 2.03592,-0.273219 2.79669,-0.828419 0.74643,-0.543867 1.29501,-1.227884 1.6324,-2.041535 l 0.0875,-0.209649 -2.0049,-0.854881 -0.0896,0.20965 c -0.48329,1.114438 -1.27681,1.631518 -2.53818,1.642591 -0.72312,-0.002 -1.34685,-0.288021 -1.91534,-0.895589 -0.5582,-0.603008 -0.83703,-1.353593 -0.83859,-2.302069 0.002,-0.948609 0.28039,-1.701619 0.83859,-2.304106 0.56849,-0.607567 1.19222,-0.891078 1.91534,-0.893553 1.20601,0.0112 1.96631,0.521607 2.44048,1.63852 l 0.0875,0.211685 2.04561,-0.852845 -0.0855,-0.209649 c -0.3387,-0.824333 -0.87702,-1.512796 -1.60392,-2.051712 -0.74252,-0.54999 -1.67407,-0.818764 -2.76818,-0.818243 z m -61.050645,0.309385 4.009794,9.110579 -2.314282,5.011226 H 68.9556 l 0.06106,-0.13841 6.079825,-13.983395 H 72.660081 L 70.04252,32.831636 67.353718,26.34676 Z m 31.980655,0 v 6.035047 c -5.21e-4,1.249094 0.319808,2.277379 0.97497,3.049071 0.660586,0.782647 1.643649,1.169298 2.87402,1.166301 0.65798,5.22e-4 1.28896,-0.17052 1.87464,-0.504786 0.39008,-0.222022 0.71166,-0.48335 0.97496,-0.777534 v 0.972935 h 2.1596 v -0.227968 h -0.002 V 26.34676 h -2.2349 v 5.452914 c -10e-4,0.728716 -0.21577,1.355677 -0.6493,1.911267 -0.43262,0.54556 -0.94646,0.799957 -1.6202,0.803995 -0.74136,-0.002 -1.24717,-0.20452 -1.585603,-0.586204 -0.338825,-0.382074 -0.529733,-0.985131 -0.529212,-1.837992 v -5.74398 z m 20.11207,0 v 9.941034 h 2.2349 v -0.22797 -9.713066 z m -56.523853,5.237159 c 0.91443,-3.66e-4 1.57786,0.182421 2.023215,0.504786 -0.03073,0.634888 -0.284148,1.175715 -0.812136,1.662945 -0.567835,0.51651 -1.170387,0.761853 -1.848168,0.763286 -0.476779,-3.91e-4 -0.884924,-0.123641 -1.247719,-0.368413 -0.347032,-0.241125 -0.493598,-0.51555 -0.498679,-0.913907 0.0025,-0.434052 0.177147,-0.798312 0.576026,-1.143911 0.379599,-0.324106 0.97401,-0.504786 1.807461,-0.504786 z"
     id="path18"
     inkscape:connector-curvature="0" /></svg>