<?xml version="1.0" encoding="UTF-8" standalone="no"?>
<!-- Created with Inkscape (http://www.inkscape.org/) -->

<svg
   xmlns:dc="http://purl.org/dc/elements/1.1/"
   xmlns:cc="http://creativecommons.org/ns#"
   xmlns:rdf="http://www.w3.org/1999/02/22-rdf-syntax-ns#"
   xmlns:svg="http://www.w3.org/2000/svg"
   xmlns="http://www.w3.org/2000/svg"
   xmlns:sodipodi="http://sodipodi.sourceforge.net/DTD/sodipodi-0.dtd"
   xmlns:inkscape="http://www.inkscape.org/namespaces/inkscape"
   version="1.1"
   width="136.5625"
   height="50"
   id="svg2"
   xml:space="preserve"
   sodipodi:docname="google-play-mono.svg"
   inkscape:version="0.92.1 r15371"><sodipodi:namedview
     pagecolor="#ffffff"
     bordercolor="#666666"
     borderopacity="1"
     objecttolerance="10"
     gridtolerance="10"
     guidetolerance="10"
     inkscape:pageopacity="0"
     inkscape:pageshadow="2"
     inkscape:window-width="1920"
     inkscape:window-height="1001"
     id="namedview4820"
     showgrid="false"
     inkscape:pagecheckerboard="true"
     inkscape:zoom="9.7057057"
     inkscape:cx="68.689194"
     inkscape:cy="18.700945"
     inkscape:window-x="-9"
     inkscape:window-y="-9"
     inkscape:window-maximized="1"
     inkscape:current-layer="svg2" /><metadata
     id="metadata8"><rdf:RDF><cc:Work
         rdf:about=""><dc:format>image/svg+xml</dc:format><dc:type
           rdf:resource="http://purl.org/dc/dcmitype/StillImage" /><dc:title></dc:title></cc:Work></rdf:RDF></metadata><defs
     id="defs6"><clipPath
       id="clipPath60"><path
         d="m 97.6953,90.1836 c -3.1015,0 -5.789,1.0664 -7.8594,3.0703 -2.6836,2.625 -4.3086,6.8091 -4.3086,12.3671 l 0,189.035 0,0 0,0 0,-1.25 c 0,9.746 4.9805,15.434 12.1563,15.434 2.8944,0 6.1484,-0.926 9.5784,-2.879 l 51.004,-28.973 c -33.36,-9.613 -57.75,-40.363 -57.75,-76.82 l 0,0 0,0 0,0 0,0 0,-0.688 c 0,0.063 0,0.125 0,0.188 0.226,-36.75 25.257,-67.609 59.203,-76.688 l 0,0 97.672,55.458 c 1.886,6.765 2.945,13.832 2.996,21.195 0,-0.07 0,-0.145 0,-0.211 l 0,0.746 0,0 0,0 c 0,7.012 -0.903,13.812 -2.598,20.289 l 16.149,-9.172 c 5.464,-3.121 8.39,-7.168 8.882,-11.25 -0.054,-4.445 -3.035,-8.89 -8.945,-12.293 L 107.262,93.0664 c -3.438,-1.957 -6.68,-2.8828 -9.5667,-2.8828 M 85.5273,294.719 c 0,0.004 0,0.011 0,0.015 0,-0.004 0,-0.011 0,-0.015 m 0,0.062 c 0,0.004 0,0.012 0,0.016 0,-0.004 0,-0.012 0,-0.016 m 0,0.067 c 0,0.004 0,0.004 0,0.007 l 0,-0.007 m 0,0.066 0,0.004 0,-0.004 m 21.7347,12.293 0,0 c -3.446,1.938 -6.699,2.856 -9.594,2.856 -2.1602,0 -4.1172,-0.512 -5.8008,-1.489 1.6953,0.996 3.6601,1.52 5.8281,1.52 2.8867,0 6.1287,-0.926 9.5667,-2.887 l 0,0"
         inkscape:connector-curvature="0"
         id="path62" /></clipPath><clipPath
       id="clipPath84"><path
         d="m 282.82,200.035 c -0.492,4.082 -3.418,8.129 -8.882,11.25 l -16.149,9.172 c -0.125,0.484 -0.254,0.961 -0.391,1.441 l 16.477,-9.363 c 5.965,-3.402 8.945,-7.887 8.945,-12.375 0,-0.043 0,-0.082 0,-0.125 m -124.554,76.953 -51.004,28.973 c -3.43,1.953 -6.684,2.879 -9.5784,2.879 -7.1758,0 -12.1563,-5.688 -12.1563,-15.434 l 0,1.25 0,0 c 0,0.02 0,0.039 0,0.063 0,0.004 0,0.011 0,0.015 0,0.016 0,0.032 0,0.047 0,0.004 0,0.012 0,0.016 0,0.016 0,0.031 0,0.051 l 0,0.007 c 0,0.02 0,0.04 0,0.059 l 0,0.004 c 0.0508,5.426 1.6641,9.52 4.3086,12.102 0.625,0.605 1.3008,1.125 2.0313,1.554 1.6836,0.977 3.6406,1.489 5.8008,1.489 2.895,0 6.148,-0.918 9.594,-2.856 l 0,0 52.468,-29.812 c -0.492,-0.133 -0.976,-0.266 -1.464,-0.407"
         inkscape:connector-curvature="0"
         id="path86" /></clipPath><clipPath
       id="clipPath100"><path
         d="m 236.883,256.785 c -13.86,13.82 -32.77,22.574 -53.723,23.274 20.953,-0.7 39.867,-9.457 53.723,-23.274"
         inkscape:connector-curvature="0"
         id="path102" /></clipPath><clipPath
       id="clipPath112"><path
         d="m 159.719,122.98 c -33.946,9.079 -58.977,39.938 -59.203,76.688 0.414,43.816 36.031,79.187 79.933,79.187 42.735,0 77.621,-33.57 79.828,-75.765 0.032,-0.949 0.047,-1.899 0.047,-2.86 0,-7.554 -1.062,-14.8 -2.996,-21.73 l -97.609,-55.52 m 20.73,127.149 c -27.59,0 -49.957,-22.367 -49.957,-49.961 0,-27.59 22.367,-49.957 49.957,-49.957 11.25,0 21.633,3.715 29.985,9.992 l 1.343,0 0,1.043 c 11.364,9.16 18.633,23.192 18.633,38.922 0,27.594 -22.367,49.961 -49.961,49.961"
         inkscape:connector-curvature="0"
         id="path114" /></clipPath><clipPath
       id="clipPath124"><path
         d="m 180.449,150.211 c -27.59,0 -49.957,22.367 -49.957,49.957 0,27.594 22.367,49.961 49.957,49.961 27.594,0 49.961,-22.367 49.961,-49.961 0,-15.73 -7.269,-29.762 -18.633,-38.922 l 0,73.895 -57.554,0 0,-74.938 56.211,0 c -8.352,-6.277 -18.735,-9.992 -29.985,-9.992"
         inkscape:connector-curvature="0"
         id="path126" /></clipPath><clipPath
       id="clipPath136"><path
         d="m 211.777,160.203 -1.343,0 c 0.453,0.34 0.902,0.688 1.343,1.043 l 0,-1.043"
         inkscape:connector-curvature="0"
         id="path138" /></clipPath><clipPath
       id="clipPath148"><path
         d="m 210.434,160.203 -56.211,0 0,74.938 57.554,0 0,-73.895 c -0.441,-0.355 -0.89,-0.703 -1.343,-1.043"
         inkscape:connector-curvature="0"
         id="path150" /></clipPath><clipPath
       id="clipPath162"><path
         d="m 260.387,199.422 c 0,0.066 0,0.141 0,0.211 0,0.176 0,0.355 0,0.535 l 0,0 0,-0.746 m -159.871,0.058 0,0.688 0,0 c 0,-0.164 0,-0.332 0,-0.5 0,-0.063 0,-0.125 0,-0.188"
         inkscape:connector-curvature="0"
         id="path164" /></clipPath><clipPath
       id="clipPath176"><path
         d="m 100.516,199.668 c 0,0.168 0,0.336 0,0.5 0,44.152 35.785,79.937 79.933,79.937 0.821,0 1.637,-0.011 2.449,-0.039 0.09,0 0.176,-0.003 0.262,-0.007 20.953,-0.7 39.863,-9.454 53.723,-23.274 13.879,-13.836 22.683,-32.746 23.394,-53.695 -2.207,42.195 -37.093,75.765 -79.828,75.765 -43.902,0 -79.519,-35.371 -79.933,-79.187"
         inkscape:connector-curvature="0"
         id="path178" /></clipPath></defs><path
     inkscape:connector-curvature="0"
     d="M 4.4810924,9.4059171 C 4.0597708,9.4148355 3.6961732,9.5611408 3.4212055,9.8272388 3.0309288,10.199776 2.8179812,10.802999 2.8179812,11.583553 V 38.42374 c 0,0.780554 0.2306874,1.383777 0.6032243,1.756314 0.5676753,0.549935 1.4547374,0.603086 2.4659083,0.01767 L 13.324339,35.972042 C 8.4882797,34.67241 4.9290933,30.25857 4.9290933,25.012486 c 0,-5.245786 3.5737538,-9.667849 8.4146487,-10.965791 L 5.8871138,9.8095684 C 5.3815283,9.5257304 4.9024142,9.3970476 4.4810924,9.4059171 Z M 27.205773,21.922907 c 0.278301,0.983004 0.430331,2.018439 0.430331,3.089575 0,1.056904 -0.140426,2.096198 -0.420282,3.066014 l 2.336324,-1.32737 c 1.703026,-0.957952 1.703026,-2.519267 0,-3.494959 z"
     id="path6"
     style="fill:#fafafa;fill-opacity:1;stroke:none;stroke-width:0.1773985" /><path
     inkscape:connector-curvature="0"
     style="fill:#ffffff;fill-opacity:1;stroke:none;stroke-width:0.1773985;stroke-opacity:1"
     d="m 16.282598,13.658977 c -6.262168,0 -11.3535047,5.091338 -11.3535047,11.353505 0,5.250996 3.5657795,9.668357 8.4087587,10.963367 l 13.872425,-7.876564 c 0.283838,-0.975692 0.425827,-2.022411 0.425827,-3.086803 0,-6.262167 -5.091338,-11.353505 -11.353506,-11.353505 z m 0,0.276839 c 6.112023,0 11.076666,4.964643 11.076666,11.076666 0,1.003489 -0.136192,1.986768 -0.393256,2.906979 L 13.31048,35.673023 C 8.6388278,34.375341 5.2059315,30.10094 5.2059315,25.012482 c 0,-6.112023 4.9646435,-11.076666 11.0766665,-11.076666 z"
     id="path17" /><path
     inkscape:connector-curvature="0"
     style="fill:#fafafa;fill-opacity:1;stroke:none;stroke-width:0.1773985;stroke-opacity:1"
     d="m 16.282598,17.916542 a 7.0959406,7.0959406 0 0 0 -7.0959409,7.09594 7.0959406,7.0959406 0 0 0 7.0959409,7.095941 7.0959406,7.0959406 0 0 0 7.095941,-7.095941 7.0959406,7.0959406 0 0 0 -7.095941,-7.09594 z m 0,3.370572 h 2.48358 v 1.773985 h -1.596587 v 4.009137 c 0,0.904732 -0.798155,1.649944 -1.720628,1.649944 -0.904732,0 -1.649944,-0.727473 -1.649944,-1.649944 0,-0.904733 0.727472,-1.649599 1.649944,-1.649599 0.301578,0 0.585277,0.08849 0.833635,0.23041 z"
     id="circle19" /><path
     style="fill:#ffffff;fill-opacity:1;fill-rule:nonzero;stroke:none;stroke-width:0.1416802"
     d="m 92.359886,7.8072276 c -2.527009,0 -4.651096,2.0576752 -4.651096,4.5846834 0,2.526442 2.124088,4.582469 4.651096,4.582469 1.363671,0 2.393563,-0.447727 3.198873,-1.286191 0.827413,-0.827412 1.082525,-1.989597 1.082525,-2.928795 0,-0.290444 -0.02164,-0.557884 -0.06641,-0.781456 h -4.214986 v 1.252985 h 2.997422 c -0.08969,0.704434 -0.32645,1.218591 -0.684051,1.576192 -0.436091,0.436092 -1.117448,0.916495 -2.313371,0.916495 -1.844676,0 -3.287424,-1.487164 -3.287424,-3.331699 0,-1.845243 1.442748,-3.3316985 3.287424,-3.3316985 0.99502,0 1.721202,0.3912493 2.258028,0.8943561 L 95.501204,9.07128 C 94.751855,8.3557953 93.757277,7.8072276 92.359886,7.8072276 Z M 116.56949,8.1193673 V 16.79728 h 1.29726 V 8.1193673 Z M 44.768617,8.7702099 c -0.229663,-0.00174 -0.441616,0.08529 -0.60214,0.2479404 -0.162082,0.1605236 -0.249074,0.3724771 -0.24794,0.6021413 -0.0011,0.2280349 0.08673,0.4373604 0.24794,0.5977134 0.160524,0.164349 0.372477,0.251712 0.60214,0.250154 0.228046,0.0016 0.437355,-0.08668 0.597714,-0.250154 h 0.0022 C 45.529735,10.058214 45.617435,9.8488964 45.616446,9.6202916 45.617437,9.3894941 45.53059,9.1781073 45.368506,9.0181503 45.208549,8.856068 44.99725,8.7690766 44.768578,8.7702099 Z m -6.406601,0.1173292 v 8.0691299 h 0.14168 4.513842 V 15.716968 H 39.645993 V 8.8875391 Z M 52.784619,9.68449 v 1.631536 H 51.8482 v 1.195428 h 0.936419 v 2.654289 c -4.26e-4,0.567287 0.153244,1.032194 0.480384,1.361458 0.326573,0.330966 0.797004,0.489665 1.379168,0.48924 0.332666,0 0.620293,-0.04927 0.86115,-0.154963 l 0.126184,-0.05535 -0.398475,-0.987334 -0.05756,-0.137253 -0.135039,0.0642 c -0.100169,0.04647 -0.229646,0.07305 -0.396262,0.07305 -0.21252,-0.0015 -0.339784,-0.05921 -0.429468,-0.166031 -0.08968,-0.107249 -0.148321,-0.290551 -0.148321,-0.562293 v -2.579023 h 1.306114 V 11.316025 H 54.066383 V 9.6844889 Z m 47.263631,1.388024 c -1.632013,0 -2.962002,1.240286 -2.962002,2.950933 0,1.699596 1.329989,2.950933 2.962002,2.950933 1.63272,0 2.962,-1.251337 2.962,-2.950933 0,-1.710647 -1.32928,-2.950933 -2.962,-2.950933 z m 6.46416,0 c -1.63258,0 -2.96422,1.240286 -2.96422,2.950933 0,1.699596 1.33164,2.950933 2.96422,2.950933 1.63216,0 2.96201,-1.251337 2.96201,-2.950933 0,-1.710647 -1.32985,-2.950933 -2.96201,-2.950933 z m 6.33355,0 c -1.47545,0 -2.82918,1.296267 -2.82918,2.962002 0,1.654825 1.35373,2.939864 2.82918,2.939864 0.70457,0 1.26291,-0.312741 1.55405,-0.670767 h 0.0443 v 0.425041 c 0,1.129049 -0.6037,1.733368 -1.57619,1.733368 -0.79356,0 -1.28617,-0.57067 -1.48764,-1.051533 l -1.1268,0.47153 c 0.32429,0.7825 1.18332,1.742224 2.61444,1.742224 1.52036,0 2.80704,-0.89487 2.80704,-3.074903 v -5.299727 h -1.23085 v 0.482599 h -0.0443 c -0.29114,-0.346549 -0.84948,-0.659698 -1.55405,-0.659698 z m 8.42998,0 c -1.52023,0 -2.7827,1.195515 -2.7827,2.950933 0,1.654824 1.25187,2.950933 2.9288,2.950933 1.35304,0 2.13516,-0.825677 2.45948,-1.306115 l -1.00726,-0.670767 c -0.33536,0.491348 -0.79257,0.814662 -1.45222,0.814662 -0.65981,0 -1.13011,-0.301709 -1.4323,-0.894358 l 3.94712,-1.631535 -0.13504,-0.336491 c -0.24567,-0.659663 -0.9939,-1.877262 -2.52588,-1.877262 z m -72.32997,0.06863 c -0.596615,-5.67e-4 -1.125719,0.154414 -1.567337,0.467101 -0.447143,0.311131 -0.688956,0.748905 -0.686264,1.264055 -0.0022,0.447284 0.174887,0.82851 0.511377,1.093594 0.318781,0.254599 0.657981,0.430495 1.02054,0.522445 h 0.0022 l 1.075883,0.261223 c 0.461027,0.125103 0.615459,0.30045 0.619851,0.568934 -0.0027,0.180926 -0.06855,0.307677 -0.236871,0.427255 -0.170442,0.117311 -0.395819,0.181528 -0.686264,0.181528 -0.633736,-0.0066 -1.041102,-0.287345 -1.314969,-0.91428 l -0.05535,-0.128397 -1.022755,0.422826 -0.130611,0.05535 0.05535,0.130612 c 0.189285,0.458336 0.491452,0.841883 0.898783,1.14451 0.416116,0.312123 0.940899,0.464889 1.558483,0.464889 0.639829,5.67e-4 1.179896,-0.168227 1.600544,-0.511377 h 0.0022 c 0.418382,-0.338615 0.6419,-0.787564 0.639774,-1.306114 0.0011,-0.386929 -0.135057,-0.744281 -0.394047,-1.049319 -0.265639,-0.312694 -0.666889,-0.522924 -1.186572,-0.644204 l -1.053748,-0.24794 c -0.451676,-0.113485 -0.596012,-0.270077 -0.597713,-0.482598 0.0039,-0.162082 0.06416,-0.271245 0.236872,-0.380764 0.1754,-0.10626 0.397501,-0.163817 0.675194,-0.163818 0.584007,0.0066 0.910934,0.204302 1.089168,0.619852 l 0.05535,0.13061 0.998403,-0.411758 L 51.184,12.600007 51.13087,12.47161 C 50.961064,12.045579 50.672715,11.709454 50.276436,11.482058 49.884123,11.253952 49.439017,11.14114 48.94597,11.14114 Z m 9.928684,0 c -0.796951,-0.0017 -1.471066,0.298237 -1.983523,0.885502 -0.512599,0.58273 -0.770954,1.290547 -0.770387,2.096423 -0.0011,0.847815 0.264004,1.566736 0.794737,2.129631 0.529176,0.567288 1.232017,0.851215 2.067647,0.850082 0.602708,0 1.124019,-0.146161 1.549627,-0.444964 0.417814,-0.291578 0.72218,-0.660744 0.907639,-1.100236 l 0.05756,-0.130612 -1.024968,-0.42504 -0.130611,-0.05313 -0.05313,0.13061 c -0.241281,0.56063 -0.649178,0.818505 -1.328252,0.825731 -0.407897,-0.0011 -0.752092,-0.140015 -1.060387,-0.429468 C 57.631228,15.221164 57.477589,14.8831 57.426858,14.44849 h 4.179566 l 0.01993,-0.318781 v -0.0045 -0.0022 c 5.67e-4,-0.887768 -0.246364,-1.618218 -0.750462,-2.162837 -0.50084,-0.545185 -1.181613,-0.820789 -2.001233,-0.819089 z m 6.645687,0 c -0.38027,0 -0.739501,0.09629 -1.071456,0.285574 -0.209533,0.119514 -0.374963,0.264651 -0.518019,0.422827 V 11.31603 h -0.141681 -1.098021 v 5.611865 h 1.283978 v -3.088187 c 0.0011,-0.406337 0.118568,-0.75379 0.36084,-1.060386 0.239157,-0.298237 0.526254,-0.438411 0.900999,-0.440537 0.414555,9.91e-4 0.693914,0.114082 0.881074,0.323208 0.187018,0.209261 0.294428,0.54012 0.294428,1.013898 v 3.252004 h 1.283977 v -3.404752 c 4.26e-4,-0.704009 -0.181049,-1.287856 -0.555651,-1.724515 -0.377436,-0.441616 -0.934169,-0.659184 -1.620468,-0.657484 z m 8.908143,0 c -0.829537,-0.0017 -1.53298,0.287221 -2.072073,0.854508 -0.541785,0.566154 -0.813581,1.286121 -0.812448,2.127417 -0.0011,0.840589 0.270663,1.560609 0.812448,2.125204 0.53966,0.568278 1.242536,0.855642 2.072073,0.854509 0.828546,0.0011 1.529774,-0.286231 2.06986,-0.854509 0.540793,-0.564596 0.81358,-1.284615 0.812447,-2.125204 0.0011,-0.841297 -0.270007,-1.561829 -0.810234,-2.127417 h -0.0022 C 75.958272,11.428359 75.25761,11.139444 74.428498,11.141144 Z m 6.667825,0 c -0.379703,0 -0.739358,0.09629 -1.071457,0.285574 -0.216429,0.123287 -0.385963,0.273887 -0.531301,0.438324 0.01001,-0.185495 0.0065,-0.432413 0.01328,-0.549012 h -0.141677 -1.095808 v 5.611865 h 1.281763 v -3.088187 c 5.66e-4,-0.406337 0.121208,-0.75379 0.363056,-1.060386 0.239014,-0.298237 0.524605,-0.438411 0.898784,-0.440537 0.414414,9.91e-4 0.694622,0.114082 0.881073,0.323208 0.187584,0.209261 0.29443,0.54012 0.29443,1.013898 v 3.252004 h 1.281762 v -3.404752 c 5.67e-4,-0.704009 -0.18034,-1.287856 -0.555651,-1.724515 -0.376869,-0.441616 -0.93153,-0.659184 -1.618254,-0.657484 z M 44.124416,11.31603 v 5.611865 h 1.283976 V 16.786216 11.31603 Z m 77.195784,0.896571 c 0.51459,0 0.95087,0.257416 1.09582,0.626492 l -2.63659,1.095808 c -0.0338,-1.140525 0.88098,-1.7223 1.54077,-1.7223 z m -21.27195,0.02213 c 0.89443,0 1.66696,0.726678 1.66696,1.788713 0,1.050983 -0.77253,1.788712 -1.66696,1.788712 -0.894284,0 -1.666956,-0.737729 -1.666955,-1.788712 0,-1.062035 0.772671,-1.788713 1.666955,-1.788713 z m 6.46416,0 c 0.89443,0 1.66475,0.726678 1.66475,1.788713 0,1.050983 -0.77032,1.788712 -1.66475,1.788712 -0.89428,0 -1.66696,-0.737729 -1.66696,-1.788712 0,-1.062035 0.77268,-1.788713 1.66696,-1.788713 z m 6.44423,0 c 0.88338,0 1.57841,0.760557 1.57841,1.799782 0,1.028881 -0.69503,1.777643 -1.57841,1.777643 -0.89372,0 -1.6426,-0.748763 -1.6426,-1.777643 0,-1.039224 0.74888,-1.799782 1.6426,-1.799782 z m -54.104124,0.104051 c 0.483696,9.91e-4 0.820754,0.129035 1.044891,0.367482 0.194301,0.209168 0.290836,0.419742 0.338705,0.633134 H 57.53976 c 0.101213,-0.277218 0.240454,-0.513348 0.442751,-0.686262 0.248507,-0.211388 0.52898,-0.313363 0.870005,-0.314354 z m 15.575968,0 c 0.435525,0.0016 0.799767,0.156538 1.122373,0.484811 0.315521,0.324306 0.474824,0.745929 0.475957,1.299473 -0.0011,0.552838 -0.160436,0.972954 -0.475957,1.29726 -0.322606,0.327566 -0.686848,0.483112 -1.122373,0.484812 -0.436659,-0.0017 -0.80028,-0.15668 -1.124586,-0.484812 l -0.0022,-0.0022 c -0.313912,-0.323998 -0.470399,-0.742936 -0.471529,-1.295047 0.0011,-0.554111 0.158363,-0.975167 0.473744,-1.299472 0.324304,-0.328274 0.687927,-0.483253 1.124587,-0.484811 z m 47.972036,9.215855 c -0.4378,-0.0028 -0.83833,0.160966 -1.14451,0.471529 -0.31042,0.306596 -0.47423,0.707852 -0.47154,1.14451 -0.002,0.437226 0.16112,0.835701 0.47154,1.142297 0.30617,0.310563 0.70671,0.476577 1.14451,0.473744 0.43665,0.0028 0.83571,-0.163181 1.1423,-0.473744 0.30999,-0.306029 0.47642,-0.704505 0.47373,-1.142297 0.002,-0.437792 -0.16374,-0.837914 -0.47373,-1.14451 -0.30659,-0.309996 -0.70565,-0.474364 -1.1423,-0.471529 z m -83.885755,0.168245 v 15.569326 h 2.432914 v -0.24794 -5.857591 h 2.953147 c 1.331086,0.0023 2.508183,-0.450561 3.482235,-1.339321 0.981702,-0.889469 1.484259,-2.042762 1.481001,-3.393683 0.0033,-1.351063 -0.499725,-2.504357 -1.481001,-3.393685 -0.974052,-0.888335 -2.151149,-1.339231 -3.482235,-1.337106 z m 12.062741,0 v 15.569324 h 2.432916 V 37.044266 21.72288 Z m 31.470717,0 v 15.569326 h 0.250153 2.184976 l -0.0797,-10.922658 4.400941,7.721571 h 1.425657 l 4.400943,-7.721571 -0.0797,10.922658 H 96.98663 V 21.722881 h -2.328869 l -5.140335,8.998907 -5.138121,-8.998907 z m -41.100544,2.346579 h 2.992996 c 0.759971,0.0034 1.328853,0.246345 1.775429,0.739393 0.457627,0.512457 0.671281,1.047636 0.672982,1.644819 -0.0017,0.596615 -0.215355,1.132928 -0.672982,1.644818 -0.446576,0.493614 -1.015457,0.735993 -1.775429,0.739394 h -2.992996 z m 18.487054,2.074286 c -1.186572,-5.67e-4 -2.172277,0.272292 -2.926581,0.839013 -0.727812,0.545752 -1.232937,1.151152 -1.49207,1.824132 l -0.08633,0.223589 2.227037,0.954128 0.09076,-0.245727 c 0.150606,-0.408464 0.416168,-0.722214 0.830158,-0.965196 0.416681,-0.243548 0.876575,-0.364703 1.399092,-0.365269 0.708968,0.0017 1.278381,0.20765 1.753292,0.622064 0,0 0.0022,0 0.0022,0 0.43874,0.391667 0.657324,0.885701 0.681835,1.534132 -0.710801,-0.319723 -1.554274,-0.484812 -2.541388,-0.484812 -1.318193,-9.93e-4 -2.450022,0.331495 -3.367118,1.005043 -0.929848,0.676806 -1.412907,1.655888 -1.407949,2.84246 -0.0033,1.096321 0.400708,2.020731 1.191,2.694137 0.783209,0.672982 1.76886,1.008959 2.911086,1.007258 1.33248,0.0058 2.427594,-0.471419 3.223225,-1.392451 v 1.05596 h 2.348792 v -6.479655 c 0.0034,-1.451656 -0.457185,-2.626716 -1.388024,-3.449028 -0.916529,-0.814661 -2.082097,-1.221337 -3.449027,-1.219778 z m 55.682537,0 c -1.15073,-5.67e-4 -2.16448,0.296697 -3.01513,0.89657 -0.86114,0.598883 -1.31993,1.436124 -1.31497,2.424061 -0.004,0.859998 0.32978,1.587879 0.97627,2.098636 0.61376,0.489789 1.27166,0.827378 1.96803,1.005045 l 2.08535,0.504736 c 0.44265,0.112331 0.75353,0.275322 0.94306,0.46046 0.18927,0.187018 0.27625,0.389727 0.27894,0.668553 -0.005,0.359726 -0.13888,0.612113 -0.47154,0.847869 -0.33422,0.231221 -0.77604,0.355846 -1.34375,0.356414 -1.23418,-0.01162 -2.04109,-0.565075 -2.57238,-1.786499 l -0.0952,-0.225802 -2.18276,0.905425 0.0952,0.230229 c 0.36695,0.882101 0.94902,1.621548 1.73337,2.207112 0.80026,0.598356 1.81024,0.892897 2.99964,0.892143 0,0 0.002,0 0.002,0 1.23317,7.31e-4 2.27348,-0.324218 3.08154,-0.982906 0.80573,-0.652438 1.23189,-1.512595 1.22864,-2.508182 10e-4,-0.743254 -0.25746,-1.426738 -0.75489,-2.012302 -0.5092,-0.600442 -1.2785,-1.007206 -2.28017,-1.239702 l 0.002,0.0022 -2.0433,-0.484812 c -0.43284,-0.09904 -0.73707,-0.244593 -0.91871,-0.405116 -0.18091,-0.162649 -0.25561,-0.325423 -0.25901,-0.555652 0.005,-0.322039 0.13292,-0.541237 0.47154,-0.75489 0.34598,-0.209121 0.78259,-0.320428 1.32382,-0.320994 1.13515,0.01218 1.7804,0.400122 2.12963,1.21535 l 0.093,0.228016 2.14069,-0.883287 -0.0907,-0.228016 c -0.32644,-0.819621 -0.88165,-1.462831 -1.64261,-1.901615 -0.75486,-0.437225 -1.6177,-0.653624 -2.56795,-0.653057 z m 15.81062,0 c -1.59943,-0.0027 -2.95259,0.550622 -3.99139,1.644819 -1.04149,1.090229 -1.56519,2.47386 -1.56291,4.097658 -0.002,1.623229 0.52142,3.007286 1.56291,4.097657 1.0388,1.094621 2.39196,1.647511 3.99139,1.644818 1.19053,0.0011 2.21429,-0.297156 3.04171,-0.900997 0.81183,-0.591516 1.40847,-1.33546 1.77542,-2.220395 l 0.0952,-0.228016 -2.18055,-0.929778 -0.0974,0.228018 c -0.52563,1.212074 -1.38867,1.774456 -2.76055,1.786499 -0.78647,-0.0022 -1.46485,-0.313255 -2.08314,-0.974052 -0.60711,-0.655838 -0.91036,-1.472182 -0.91206,-2.503754 0.002,-1.031717 0.30495,-1.850699 0.91206,-2.50597 0.61829,-0.660796 1.29667,-0.969145 2.08314,-0.971837 1.31167,0.01218 2.13858,0.567305 2.65429,1.782071 l 0.0952,0.230231 2.22483,-0.927563 -0.093,-0.228017 c -0.36838,-0.896553 -0.95386,-1.645332 -1.74444,-2.231463 -0.80758,-0.598175 -1.82074,-0.890496 -3.01071,-0.889929 z m -66.39931,0.33649 4.361093,9.90876 -2.517037,5.450261 h 2.550243 l 0.06641,-0.150536 6.61248,-15.208485 h -2.649858 l -2.846886,7.053016 -2.924369,-7.053018 z m 34.782491,0 v 6.56378 c -5.66e-4,1.358527 0.347827,2.476901 1.060389,3.316201 0.71846,0.851215 1.78765,1.27174 3.12581,1.268481 0.71563,5.68e-4 1.40189,-0.18546 2.03888,-0.549011 0.42426,-0.241473 0.77401,-0.525696 1.06038,-0.845654 v 1.058174 h 2.3488 v -0.24794 h -0.002 V 26.480236 h -2.43071 v 5.930646 c -0.001,0.792559 -0.23467,1.474448 -0.70618,2.078713 -0.47052,0.593357 -1.02938,0.870042 -1.76215,0.874434 -0.80631,-0.0022 -1.35643,-0.222438 -1.72452,-0.637562 -0.3685,-0.415548 -0.57614,-1.071439 -0.57557,-1.999019 v -6.247212 z m 21.874099,0 v 10.811971 h 2.4307 V 37.044267 26.480236 Z m -61.475931,5.695988 c 0.994544,-3.98e-4 1.716097,0.198403 2.20047,0.549011 -0.03342,0.690511 -0.309043,1.27872 -0.883288,1.808636 -0.617583,0.561762 -1.272925,0.828599 -2.010086,0.830158 -0.51855,-4.25e-4 -0.962453,-0.134473 -1.357033,-0.40069 -0.377435,-0.26225 -0.536842,-0.560718 -0.542368,-0.993975 0.0027,-0.472079 0.192667,-0.868252 0.626492,-1.244129 0.412856,-0.352501 1.059343,-0.549011 1.965813,-0.549011 z"
     id="path18"
     inkscape:connector-curvature="0" /><path
     style="fill:#fafafa;fill-opacity:1;stroke:none;stroke-width:0.1773985"
     id="path5004"
     d="M 4.4810924,9.4059171 C 4.0597708,9.4148355 3.6961732,9.5611408 3.4212055,9.8272388 3.0309288,10.199776 2.8179812,10.802999 2.8179812,11.583553 V 38.42374 c 0,0.780554 0.2306874,1.383777 0.6032243,1.756314 0.5676753,0.549935 1.4547374,0.603086 2.4659083,0.01767 L 13.324339,35.972042 C 8.4882797,34.67241 4.9290933,30.25857 4.9290933,25.012486 c 0,-5.245786 3.5737538,-9.667849 8.4146487,-10.965791 L 5.8871138,9.8095684 C 5.3815283,9.5257304 4.9024142,9.3970476 4.4810924,9.4059171 Z M 27.205773,21.922907 c 0.278301,0.983004 0.430331,2.018439 0.430331,3.089575 0,1.056904 -0.140426,2.096198 -0.420282,3.066014 l 2.336324,-1.32737 c 1.703026,-0.957952 1.703026,-2.519267 0,-3.494959 z"
     inkscape:connector-curvature="0" /><path
     id="path5006"
     d="m 16.282598,13.658977 c -6.262168,0 -11.3535047,5.091338 -11.3535047,11.353505 0,5.250996 3.5657795,9.668357 8.4087587,10.963367 l 13.872425,-7.876564 c 0.283838,-0.975692 0.425827,-2.022411 0.425827,-3.086803 0,-6.262167 -5.091338,-11.353505 -11.353506,-11.353505 z m 0,0.276839 c 6.112023,0 11.076666,4.964643 11.076666,11.076666 0,1.003489 -0.136192,1.986768 -0.393256,2.906979 L 13.31048,35.673023 C 8.6388278,34.375341 5.2059315,30.10094 5.2059315,25.012482 c 0,-6.112023 4.9646435,-11.076666 11.0766665,-11.076666 z"
     style="fill:#ffffff;fill-opacity:1;stroke:none;stroke-width:0.1773985;stroke-opacity:1"
     inkscape:connector-curvature="0" /><path
     id="path5008"
     d="m 16.282598,17.916542 a 7.0959406,7.0959406 0 0 0 -7.0959409,7.09594 7.0959406,7.0959406 0 0 0 7.0959409,7.095941 7.0959406,7.0959406 0 0 0 7.095941,-7.095941 7.0959406,7.0959406 0 0 0 -7.095941,-7.09594 z m 0,3.370572 h 2.48358 v 1.773985 h -1.596587 v 4.009137 c 0,0.904732 -0.798155,1.649944 -1.720628,1.649944 -0.904732,0 -1.649944,-0.727473 -1.649944,-1.649944 0,-0.904733 0.727472,-1.649599 1.649944,-1.649599 0.301578,0 0.585277,0.08849 0.833635,0.23041 z"
     style="fill:#fafafa;fill-opacity:1;stroke:none;stroke-width:0.1773985;stroke-opacity:1"
     inkscape:connector-curvature="0" /></svg>