<?xml version="1.0" encoding="UTF-8" standalone="no"?>
<svg
   xmlns:dc="http://purl.org/dc/elements/1.1/"
   xmlns:cc="http://creativecommons.org/ns#"
   xmlns:rdf="http://www.w3.org/1999/02/22-rdf-syntax-ns#"
   xmlns:svg="http://www.w3.org/2000/svg"
   xmlns="http://www.w3.org/2000/svg"
   xmlns:sodipodi="http://sodipodi.sourceforge.net/DTD/sodipodi-0.dtd"
   xmlns:inkscape="http://www.inkscape.org/namespaces/inkscape"
   x="0px"
   y="0px"
   viewBox="0 0 192 192"
   version="1.1"
   id="svg36"
   sodipodi:docname="play_music_triangle_monod.svg"
   inkscape:version="0.92.1 r15371">
  <metadata
     id="metadata42">
    <rdf:RDF>
      <cc:Work
         rdf:about="">
        <dc:format>image/svg+xml</dc:format>
        <dc:type
           rdf:resource="http://purl.org/dc/dcmitype/StillImage" />
        <dc:title></dc:title>
      </cc:Work>
    </rdf:RDF>
  </metadata>
  <defs
     id="defs40" />
  <sodipodi:namedview
     pagecolor="#ffffff"
     bordercolor="#666666"
     borderopacity="1"
     objecttolerance="10"
     gridtolerance="10"
     guidetolerance="10"
     inkscape:pageopacity="0"
     inkscape:pageshadow="2"
     inkscape:window-width="1920"
     inkscape:window-height="1001"
     id="namedview38"
     showgrid="false"
     inkscape:pagecheckerboard="true"
     inkscape:zoom="3.8375677"
     inkscape:cx="87.756421"
     inkscape:cy="75.50843"
     inkscape:window-x="-9"
     inkscape:window-y="-9"
     inkscape:window-maximized="1"
     inkscape:current-layer="svg36" />
  <rect
     width="192"
     height="192"
     fill="none"
     id="rect2" />
  <rect
     width="192"
     height="192"
     fill="none"
     id="rect4" />
  <path
     d="M 29.474609 8.0253906 C 27.099609 8.0753906 25.05 8.9003906 23.5 10.400391 C 21.3 12.500391 20.099609 15.900781 20.099609 20.300781 L 20.099609 171.59961 C 20.099609 175.99961 21.4 179.4 23.5 181.5 C 26.7 184.6 31.700391 184.89961 37.400391 181.59961 L 79.324219 157.7793 C 52.063228 150.45324 32 125.57231 32 96 C 32 66.429366 52.145347 41.502082 79.433594 34.185547 L 37.400391 10.300781 C 34.550391 8.7007813 31.849609 7.9753906 29.474609 8.0253906 z M 157.57422 78.583984 C 159.14301 84.125204 160 89.96198 160 96 C 160 101.95779 159.20842 107.81632 157.63086 113.2832 L 170.80078 105.80078 C 180.40078 100.40078 180.40078 91.599609 170.80078 86.099609 L 157.57422 78.583984 z "
     id="path6"
     style="fill:#fafafa;fill-opacity:1" />
  <linearGradient
     id="a"
     x1="98.9857"
     x2="98.9857"
     y1="183.6666"
     y2="7.938"
     gradientUnits="userSpaceOnUse">
    <stop
       offset="0"
       stop-color="#FFF"
       stop-opacity="0"
       id="stop8" />
    <stop
       offset="1"
       stop-color="#FFF"
       stop-opacity="0.1"
       id="stop10" />
  </linearGradient>
  <path
     fill="url(#a)"
     d="M170.8,86.1L37.4,10.3c-5.7-3.2-10.8-2.9-13.9,0.1l0,0c-2.2,2.1-3.4,5.5-3.4,9.9v151.3 c0,4.4,1.3,7.8,3.4,9.9l0,0c3.2,3.1,8.2,3.4,13.9,0.1l133.4-75.8C180.4,100.4,180.4,91.6,170.8,86.1z"
     id="path13"
     style="fill:#ffffff;fill-opacity:0;stroke:none" />
  <path
     style="stroke:none;stroke-opacity:1;fill:#ffffff;fill-opacity:1"
     d="M 96 32 C 60.7 32 32 60.7 32 96 C 32 125.6 52.100391 150.50078 79.400391 157.80078 L 157.59961 113.40039 C 159.19961 107.90039 160 102 160 96 C 160 60.7 131.3 32 96 32 z M 96 33.560547 C 130.45363 33.560547 158.43945 61.546365 158.43945 96 C 158.43945 101.65669 157.67173 107.19946 156.22266 112.38672 L 79.246094 156.09375 C 52.911872 148.77868 33.560547 124.68377 33.560547 96 C 33.560547 61.546365 61.546365 33.560547 96 33.560547 z "
     id="path17" />
  <path
     style="fill:#fafafa;fill-opacity:1;stroke:#ffffff;stroke-opacity:1"
     d="M 96 56 A 40 40 0 0 0 56 96 A 40 40 0 0 0 96 136 A 40 40 0 0 0 136 96 A 40 40 0 0 0 96 56 z M 96 75 L 110 75 L 110 85 L 101 85 L 101 107.59961 C 101 112.69961 96.500781 116.90039 91.300781 116.90039 C 86.200781 116.90039 82 112.79961 82 107.59961 C 82 102.49961 86.100781 98.300781 91.300781 98.300781 C 93.000781 98.300781 94.6 98.799609 96 99.599609 L 96 75 z "
     id="circle19" />
  <linearGradient
     id="b"
     x1="104.3169"
     x2="119.2413"
     y1="110.4006"
     y2="136.2504"
     gradientUnits="userSpaceOnUse">
    <stop
       offset="0"
       stop-color="#991700"
       stop-opacity="0"
       id="stop21" />
    <stop
       offset="1"
       stop-color="#991700"
       stop-opacity="0.1"
       id="stop23" />
  </linearGradient>
  <g
     id="g32"
     style="fill:#fafafa;fill-opacity:1" />
</svg>
