<svg xmlns="http://www.w3.org/2000/svg" width="92.985" height="53.006" viewBox="0 0 92.985 53.006"><path fill="#fff" d="M1.053 24.152c-.194 0-.348.15-.373.364L0 29.68l.68 5.077c.025.214.18.363.373.363.188 0 .34-.148.37-.36v-.002l.807-5.077-.806-5.165c-.03-.213-.184-.363-.37-.363zm3.824-2.822c-.032-.222-.19-.375-.387-.375s-.36.158-.387.375l-.914 8.35.913 8.167c.026.22.19.377.387.377.195 0 .354-.154.386-.375l1.04-8.17-1.04-8.35zm14.404-7.703c-.374 0-.684.307-.702.697l-.728 15.364.728 9.93c.02.387.328.693.703.693.374 0 .683-.306.705-.695v.003l.823-9.93-.823-15.364c-.022-.39-.33-.697-.704-.697zm-7.454 5.34c-.288 0-.523.23-.546.537l-.82 10.18.82 9.85c.022.304.258.534.546.534.285 0 .52-.23.545-.535l.933-9.85-.932-10.18c-.024-.306-.26-.536-.544-.536zm15.03 21.343c.466 0 .844-.375.863-.855l.713-9.762-.713-20.455c-.02-.48-.397-.855-.862-.855-.47 0-.848.376-.863.856l-.633 20.452.633 9.766c.015.476.394.852.862.852zm15.51.046c.64 0 1.17-.527 1.18-1.175v.008-.007l.5-9.48-.5-23.625c-.01-.647-.54-1.175-1.18-1.175-.64 0-1.17.527-1.18 1.176l-.444 23.615.445 9.497c.01.642.54 1.17 1.18 1.17zm-7.813-.037c.557 0 1.006-.448 1.02-1.018v.007l.607-9.615-.607-20.603c-.015-.57-.464-1.016-1.02-1.016-.562 0-1.01.446-1.023 1.016l-.54 20.604.54 9.612c.013.564.462 1.01 1.023 1.01zm-19.014-.09c.33 0 .598-.266.623-.615l.878-9.93-.877-9.448c-.024-.35-.292-.612-.624-.612-.337 0-.605.265-.626.616l-.773 9.444.774 9.93c.022.35.29.615.625.615zm-7.397-.545c.242 0 .438-.19.466-.455l.985-9.548-.985-9.908c-.03-.265-.225-.456-.467-.456-.245 0-.44.192-.466.456l-.868 9.908.867 9.546c.024.265.22.457.466.457zM38.445 8.75c-.605 0-1.09.48-1.102 1.096l-.492 19.85.493 9.553c.012.607.496 1.088 1.102 1.088.604 0 1.086-.48 1.1-1.096v.008l.552-9.552-.552-19.854c-.014-.614-.496-1.095-1.1-1.095zm-15.39 31.58c.418 0 .763-.34.783-.776l.768-9.863-.768-18.877c-.02-.436-.365-.776-.783-.776-.422 0-.766.34-.784.776l-.68 18.878.682 9.868c.017.43.36.772.783.772zm8.576-.93v-.006l.66-9.7-.66-21.144c-.015-.525-.43-.937-.94-.937-.514 0-.928.41-.942.937l-.586 21.143.587 9.705c.013.52.427.93.94.93.512 0 .924-.41.94-.933v.004zm49.92-21.894c-1.568 0-3.063.317-4.425.888C76.215 8.086 67.57 0 57.027 0c-2.58 0-5.095.508-7.316 1.367-.862.334-1.092.678-1.1 1.345v36.3c.01.7.552 1.283 1.235 1.352.03.003 31.5.02 31.703.02 6.316 0 11.437-5.122 11.437-11.44s-5.12-11.438-11.436-11.438zM46.27 2.68c-.687 0-1.25.564-1.26 1.257l-.517 25.765.517 9.35c.01.684.573 1.247 1.26 1.247.685 0 1.25-.564 1.26-1.257v.01l.56-9.35-.56-25.768c-.01-.69-.575-1.255-1.26-1.255zM9.236 47.654c-1.353-.318-1.72-.488-1.72-1.024 0-.378.306-.77 1.22-.77.78 0 1.39.318 1.94.88l1.23-1.195c-.805-.84-1.78-1.34-3.108-1.34-1.684 0-3.05.95-3.05 2.5 0 1.68 1.1 2.18 2.67 2.546 1.61.366 1.903.61 1.903 1.16 0 .646-.476.927-1.486.927-.817 0-1.585-.28-2.183-.977l-1.23 1.098c.646.95 1.89 1.548 3.316 1.548 2.33 0 3.354-1.097 3.354-2.718 0-1.854-1.5-2.317-2.854-2.634zm7.854-3.45c-2.328 0-3.705 1.804-3.705 4.4s1.377 4.4 3.705 4.4 3.707-1.802 3.707-4.4-1.38-4.4-3.707-4.4zm0 7.108c-1.377 0-1.95-1.183-1.95-2.706 0-1.524.573-2.707 1.95-2.707 1.38 0 1.95 1.182 1.95 2.706 0 1.523-.57 2.706-1.95 2.706zm10.596-2.182c0 1.365-.672 2.207-1.756 2.207-1.085 0-1.743-.866-1.743-2.23v-4.77H22.48v4.793c0 2.486 1.39 3.876 3.45 3.876 2.17 0 3.463-1.427 3.463-3.9v-4.77h-1.707v4.794zm9.07-1.183c0 .476.024 1.548.024 1.865-.11-.22-.39-.646-.597-.964l-3.025-4.512h-1.633v8.536h1.683v-3.756c0-.476-.024-1.548-.024-1.865.11.22.39.647.597.965l3.135 4.657h1.524v-8.536h-1.684v3.61zm6.547-3.61h-2.67v8.536h2.547c2.195 0 4.366-1.27 4.366-4.268 0-3.122-1.805-4.268-4.243-4.268zm-.123 6.878h-.84v-5.22h.902c1.805 0 2.55.866 2.55 2.61 0 1.56-.82 2.61-2.612 2.61zm9.645-5.317c.768 0 1.256.342 1.56.927l1.586-.73c-.536-1.11-1.512-1.89-3.12-1.89-2.23 0-3.792 1.803-3.792 4.4 0 2.694 1.5 4.4 3.73 4.4 1.55 0 2.573-.72 3.158-1.926l-1.438-.855c-.45.757-.903 1.086-1.67 1.086-1.28 0-2.025-1.17-2.025-2.705 0-1.584.733-2.707 2.012-2.707zm6.33-1.56H57.45v8.535h5.13V51.19h-3.424v-6.853zm7.92-.134c-2.33 0-3.706 1.804-3.706 4.4s1.376 4.4 3.706 4.4c2.328 0 3.706-1.802 3.706-4.4s-1.378-4.4-3.706-4.4zm0 7.108c-1.378 0-1.95-1.183-1.95-2.706 0-1.524.572-2.707 1.95-2.707 1.377 0 1.95 1.182 1.95 2.706 0 1.523-.573 2.706-1.95 2.706zM77.67 49.13c0 1.365-.67 2.207-1.754 2.207-1.087 0-1.744-.866-1.744-2.23v-4.77h-1.707v4.793c0 2.486 1.39 3.876 3.45 3.876 2.17 0 3.463-1.427 3.463-3.9v-4.77H77.67v4.794zm6.51-4.793h-2.668v8.536h2.547c2.195 0 4.364-1.27 4.364-4.268 0-3.122-1.804-4.268-4.243-4.268zm-.12 6.878h-.842v-5.22h.903c1.804 0 2.548.866 2.548 2.61 0 1.56-.817 2.61-2.61 2.61z"/></svg>