<!DOCTYPE svg PUBLIC "-//W3C//DTD SVG 1.1//EN" "http://www.w3.org/Graphics/SVG/1.1/DTD/svg11.dtd">
<svg xmlns="http://www.w3.org/2000/svg" version="1.1" width="512" height="512" viewBox="-1, -1, 2, 2" preserveAspectRatio="none" transform="">
  <ellipse rx="0.9736667" ry="0.9736667" visibility="visible" fill="none" stroke="#000000" fill-opacity="0" stroke-width="0.03" stroke-miterlimit="4" stroke-opacity="1" opacity="1" transform="translate(0, 0.02361874) rotate(0, 0, 0)" />
  <ellipse rx="0.941" ry="0.941" visibility="visible" fill="none" stroke="#000000" fill-opacity="0" stroke-width="0.03" stroke-miterlimit="4" stroke-opacity="1" opacity="1" transform="translate(0, -0.0201633) rotate(0, 0, 0)" />
  <ellipse rx="0.9083334" ry="0.9083334" visibility="visible" fill="none" stroke="#000000" fill-opacity="0" stroke-width="0.03" stroke-miterlimit="4" stroke-opacity="1" opacity="1" transform="translate(0, -0.06245139) rotate(0, 0, 0)" />
  <ellipse rx="0.8756667" ry="0.8756667" visibility="visible" fill="none" stroke="#000000" fill-opacity="0" stroke-width="0.03" stroke-miterlimit="4" stroke-opacity="1" opacity="1" transform="translate(0, -0.1032455) rotate(0, 0, 0)" />
  <ellipse rx="0.843" ry="0.843" visibility="visible" fill="none" stroke="#000000" fill-opacity="0" stroke-width="0.03" stroke-miterlimit="4" stroke-opacity="1" opacity="1" transform="translate(0, -0.1425457) rotate(0, 0, 0)" />
  <ellipse rx="0.8103333" ry="0.8103333" visibility="visible" fill="none" stroke="#000000" fill-opacity="0" stroke-width="0.03" stroke-miterlimit="4" stroke-opacity="1" opacity="1" transform="translate(0, -0.1803519) rotate(0, 0, 0)" />
  <ellipse rx="0.7776667" ry="0.7776667" visibility="visible" fill="none" stroke="#000000" fill-opacity="0" stroke-width="0.03" stroke-miterlimit="4" stroke-opacity="1" opacity="1" transform="translate(0, -0.2166642) rotate(0, 0, 0)" />
  <ellipse rx="0.745" ry="0.745" visibility="visible" fill="none" stroke="#000000" fill-opacity="0" stroke-width="0.03" stroke-miterlimit="4" stroke-opacity="1" opacity="1" transform="translate(0, -0.2514825) rotate(0, 0, 0)" />
  <ellipse rx="0.7123333" ry="0.7123333" visibility="visible" fill="none" stroke="#000000" fill-opacity="0" stroke-width="0.03" stroke-miterlimit="4" stroke-opacity="1" opacity="1" transform="translate(0, -0.2848068) rotate(0, 0, 0)" />
  <ellipse rx="0.6796666" ry="0.6796666" visibility="visible" fill="none" stroke="#000000" fill-opacity="0" stroke-width="0.03" stroke-miterlimit="4" stroke-opacity="1" opacity="1" transform="translate(0, -0.3166372) rotate(0, 0, 0)" />
  <ellipse rx="0.647" ry="0.647" visibility="visible" fill="none" stroke="#000000" fill-opacity="0" stroke-width="0.03" stroke-miterlimit="4" stroke-opacity="1" opacity="1" transform="translate(0, -0.3469737) rotate(0, 0, 0)" />
  <ellipse rx="0.6143333" ry="0.6143333" visibility="visible" fill="none" stroke="#000000" fill-opacity="0" stroke-width="0.03" stroke-miterlimit="4" stroke-opacity="1" opacity="1" transform="translate(0, -0.3758162) rotate(0, 0, 0)" />
  <ellipse rx="0.5816666" ry="0.5816666" visibility="visible" fill="none" stroke="#000000" fill-opacity="0" stroke-width="0.03" stroke-miterlimit="4" stroke-opacity="1" opacity="1" transform="translate(0, -0.4031647) rotate(0, 0, 0)" />
  <ellipse rx="0.549" ry="0.549" visibility="visible" fill="none" stroke="#000000" fill-opacity="0" stroke-width="0.03" stroke-miterlimit="4" stroke-opacity="1" opacity="1" transform="translate(0, -0.4290193) rotate(0, 0, 0)" />
  <ellipse rx="0.5163333" ry="0.5163333" visibility="visible" fill="none" stroke="#000000" fill-opacity="0" stroke-width="0.03" stroke-miterlimit="4" stroke-opacity="1" opacity="1" transform="translate(0, -0.4533799) rotate(0, 0, 0)" />
  <ellipse rx="0.4836667" ry="0.4836667" visibility="visible" fill="none" stroke="#000000" fill-opacity="0" stroke-width="0.03" stroke-miterlimit="4" stroke-opacity="1" opacity="1" transform="translate(0, -0.4762466) rotate(0, 0, 0)" />
  <ellipse rx="0.451" ry="0.451" visibility="visible" fill="none" stroke="#000000" fill-opacity="0" stroke-width="0.03" stroke-miterlimit="4" stroke-opacity="1" opacity="1" transform="translate(0, -0.4976193) rotate(0, 0, 0)" />
  <ellipse rx="0.4183333" ry="0.4183333" visibility="visible" fill="none" stroke="#000000" fill-opacity="0" stroke-width="0.03" stroke-miterlimit="4" stroke-opacity="1" opacity="1" transform="translate(0, -0.5174981) rotate(0, 0, 0)" />
  <ellipse rx="0.3856667" ry="0.3856667" visibility="visible" fill="none" stroke="#000000" fill-opacity="0" stroke-width="0.03" stroke-miterlimit="4" stroke-opacity="1" opacity="1" transform="translate(0, -0.5358828) rotate(0, 0, 0)" />
  <ellipse rx="0.353" ry="0.353" visibility="visible" fill="none" stroke="#000000" fill-opacity="0" stroke-width="0.03" stroke-miterlimit="4" stroke-opacity="1" opacity="1" transform="translate(0, -0.5527737) rotate(0, 0, 0)" />
  <ellipse rx="0.3203333" ry="0.3203333" visibility="visible" fill="none" stroke="#000000" fill-opacity="0" stroke-width="0.03" stroke-miterlimit="4" stroke-opacity="1" opacity="1" transform="translate(0, -0.5681706) rotate(0, 0, 0)" />
  <ellipse rx="0.2876667" ry="0.2876667" visibility="visible" fill="none" stroke="#000000" fill-opacity="0" stroke-width="0.03" stroke-miterlimit="4" stroke-opacity="1" opacity="1" transform="translate(0, -0.5820735) rotate(0, 0, 0)" />
  <ellipse rx="0.255" ry="0.255" visibility="visible" fill="none" stroke="#000000" fill-opacity="0" stroke-width="0.03" stroke-miterlimit="4" stroke-opacity="1" opacity="1" transform="translate(0, -0.5944825) rotate(0, 0, 0)" />
  <ellipse rx="0.2223333" ry="0.2223333" visibility="visible" fill="none" stroke="#000000" fill-opacity="0" stroke-width="0.03" stroke-miterlimit="4" stroke-opacity="1" opacity="1" transform="translate(0, -0.6053975) rotate(0, 0, 0)" />
  <ellipse rx="0.1896667" ry="0.1896667" visibility="visible" fill="none" stroke="#000000" fill-opacity="0" stroke-width="0.03" stroke-miterlimit="4" stroke-opacity="1" opacity="1" transform="translate(0, -0.6148186) rotate(0, 0, 0)" />
  <ellipse rx="0.157" ry="0.157" visibility="visible" fill="none" stroke="#000000" fill-opacity="0" stroke-width="0.03" stroke-miterlimit="4" stroke-opacity="1" opacity="1" transform="translate(0, -0.6227457) rotate(0, 0, 0)" />
  <ellipse rx="0.1243333" ry="0.1243333" visibility="visible" fill="none" stroke="#000000" fill-opacity="0" stroke-width="0.03" stroke-miterlimit="4" stroke-opacity="1" opacity="1" transform="translate(0, -0.6291789) rotate(0, 0, 0)" />
  <ellipse rx="0.09166667" ry="0.09166667" visibility="visible" fill="none" stroke="#000000" fill-opacity="0" stroke-width="0.03" stroke-miterlimit="4" stroke-opacity="1" opacity="1" transform="translate(0, -0.6341181) rotate(0, 0, 0)" />
  <ellipse rx="0.059" ry="0.059" visibility="visible" fill="none" stroke="#000000" fill-opacity="0" stroke-width="0.03" stroke-miterlimit="4" stroke-opacity="1" opacity="1" transform="translate(0, -0.6375633) rotate(0, 0, 0)" />
  <ellipse rx="0.02633333" ry="0.02633333" visibility="visible" fill="none" stroke="#000000" fill-opacity="0" stroke-width="0.03" stroke-miterlimit="4" stroke-opacity="1" opacity="1" transform="translate(0, -0.6395146) rotate(0, 0, 0)" />
</svg>